<?xml version="1.0" encoding="UTF-8" standalone="no"?>
<svg
   sodipodi:docname="11 - Nachos.svg"
   inkscape:version="1.1.1 (1:1.1+202109281949+c3084ef5ed)"
   id="svg831"
   version="1.1"
   viewBox="0 0 22.577778 22.577778"
   height="64pt"
   width="64pt"
   inkscape:export-filename="/media/taufikramadhan/Data/Tr Design Studio/Project Design/TR Creative Design/Icon Design/Project Hiring/Icon Icons/010 - Food/Send/3 - Flat/20 - Lollipop.png"
   inkscape:export-xdpi="576"
   inkscape:export-ydpi="576"
   xmlns:inkscape="http://www.inkscape.org/namespaces/inkscape"
   xmlns:sodipodi="http://sodipodi.sourceforge.net/DTD/sodipodi-0.dtd"
   xmlns="http://www.w3.org/2000/svg"
   xmlns:svg="http://www.w3.org/2000/svg"
   xmlns:rdf="http://www.w3.org/1999/02/22-rdf-syntax-ns#"
   xmlns:cc="http://creativecommons.org/ns#"
   xmlns:dc="http://purl.org/dc/elements/1.1/">
  <defs
     id="defs825">
    <pattern
       y="0"
       x="0"
       height="6"
       width="6"
       patternUnits="userSpaceOnUse"
       id="EMFhbasepattern" />
    <pattern
       y="0"
       x="0"
       height="6"
       width="6"
       patternUnits="userSpaceOnUse"
       id="EMFhbasepattern-9" />
    <pattern
       y="0"
       x="0"
       height="6"
       width="6"
       patternUnits="userSpaceOnUse"
       id="EMFhbasepattern-0" />
    <pattern
       y="0"
       x="0"
       height="6"
       width="6"
       patternUnits="userSpaceOnUse"
       id="EMFhbasepattern-7" />
    <pattern
       y="0"
       x="0"
       height="6"
       width="6"
       patternUnits="userSpaceOnUse"
       id="EMFhbasepattern-2" />
    <pattern
       y="0"
       x="0"
       height="6"
       width="6"
       patternUnits="userSpaceOnUse"
       id="EMFhbasepattern-98" />
    <pattern
       y="0"
       x="0"
       height="6"
       width="6"
       patternUnits="userSpaceOnUse"
       id="EMFhbasepattern-6" />
    <pattern
       y="0"
       x="0"
       height="6"
       width="6"
       patternUnits="userSpaceOnUse"
       id="EMFhbasepattern-01" />
    <pattern
       y="0"
       x="0"
       height="6"
       width="6"
       patternUnits="userSpaceOnUse"
       id="EMFhbasepattern-07" />
    <pattern
       y="0"
       x="0"
       height="6"
       width="6"
       patternUnits="userSpaceOnUse"
       id="EMFhbasepattern-8" />
    <pattern
       y="0"
       x="0"
       height="6"
       width="6"
       patternUnits="userSpaceOnUse"
       id="EMFhbasepattern-4" />
    <pattern
       y="0"
       x="0"
       height="6"
       width="6"
       patternUnits="userSpaceOnUse"
       id="EMFhbasepattern-40" />
    <pattern
       y="0"
       x="0"
       height="6"
       width="6"
       patternUnits="userSpaceOnUse"
       id="EMFhbasepattern-08" />
    <pattern
       y="0"
       x="0"
       height="6"
       width="6"
       patternUnits="userSpaceOnUse"
       id="EMFhbasepattern-04" />
    <pattern
       y="0"
       x="0"
       height="6"
       width="6"
       patternUnits="userSpaceOnUse"
       id="EMFhbasepattern-014" />
    <pattern
       y="0"
       x="0"
       height="6"
       width="6"
       patternUnits="userSpaceOnUse"
       id="EMFhbasepattern-27" />
    <pattern
       y="0"
       x="0"
       height="6"
       width="6"
       patternUnits="userSpaceOnUse"
       id="EMFhbasepattern-09" />
    <pattern
       y="0"
       x="0"
       height="6"
       width="6"
       patternUnits="userSpaceOnUse"
       id="EMFhbasepattern-5" />
    <pattern
       y="0"
       x="0"
       height="6"
       width="6"
       patternUnits="userSpaceOnUse"
       id="EMFhbasepattern-018" />
  </defs>
  <sodipodi:namedview
     inkscape:document-rotation="0"
     inkscape:snap-global="true"
     inkscape:snap-nodes="false"
     inkscape:bbox-nodes="true"
     inkscape:snap-bbox="true"
     showguides="false"
     inkscape:snap-midpoints="true"
     inkscape:snap-smooth-nodes="true"
     inkscape:snap-intersection-paths="true"
     inkscape:object-paths="true"
     inkscape:showpageshadow="false"
     inkscape:pagecheckerboard="true"
     inkscape:window-maximized="1"
     inkscape:window-y="31"
     inkscape:window-x="0"
     inkscape:window-height="705"
     inkscape:window-width="1366"
     units="pt"
     showgrid="false"
     inkscape:current-layer="layer1"
     inkscape:document-units="pt"
     inkscape:cy="42.732285"
     inkscape:cx="42.836257"
     inkscape:zoom="4.8090103"
     inkscape:pageshadow="2"
     inkscape:pageopacity="0.0"
     borderopacity="1.0"
     bordercolor="#666666"
     pagecolor="#ffffff"
     id="base">
    <inkscape:grid
       id="grid1378"
       type="xygrid" />
    <sodipodi:guide
       inkscape:locked="false"
       id="guide1380"
       orientation="78.000048,0"
       position="0.97013831,21.607643" />
    <sodipodi:guide
       inkscape:locked="false"
       id="guide1382"
       orientation="0,78.000005"
       position="0.97013831,0.97013129" />
    <sodipodi:guide
       inkscape:locked="false"
       id="guide1384"
       orientation="-78.000048,0"
       position="21.607639,0.97013129" />
    <sodipodi:guide
       inkscape:locked="false"
       id="guide1386"
       orientation="0,-78.000005"
       position="21.607639,21.607643" />
  </sodipodi:namedview>
  <metadata
     id="metadata828">
    <rdf:RDF>
      <cc:Work
         rdf:about="">
        <dc:format>image/svg+xml</dc:format>
        <dc:type
           rdf:resource="http://purl.org/dc/dcmitype/StillImage" />
      </cc:Work>
    </rdf:RDF>
  </metadata>
  <g
     transform="translate(0,-274.42223)"
     id="layer1"
     inkscape:groupmode="layer"
     inkscape:label="Icon">
    <g
       id="g1900"
       style="display:inline"
       transform="matrix(1.2429821,0,0,1.2429821,-75.063489,-72.93087)">
      <g
         id="g175690"
         style="display:inline">
        <g
           id="g173625">
          <g
             id="g149364"
             transform="translate(0,10.583333)">
            <path
               style="color:#000000;fill:#fed883;stroke-linecap:round;stroke-linejoin:round;-inkscape-stroke:none"
               d="m 77.73828,273.16475 c 0.126112,-0.48676 -0.335581,-0.94873 -0.822265,-0.82422 l -3.507812,0.8984 c -0.143953,0.0359 -0.230315,0.18301 -0.191406,0.32617 l 0.349609,1.29883 c 0.01337,0.0515 0.04195,0.0978 0.08203,0.13281 l 0.824219,0.70898 c 0.09849,0.0851 0.244276,0.086 0.34375,0.002 l 0.46875,-0.39844 0.460938,0.10937 0.478515,2.04102 c 0.06537,0.26819 0.446219,0.26967 0.513672,0.002 z"
               id="path110829"
               sodipodi:nodetypes="ccccccccccccc" />
            <path
               style="color:#000000;fill:#fed883;stroke-linecap:round;stroke-linejoin:round;-inkscape-stroke:none"
               d="m 68.796875,270.17252 c -0.227685,0 -0.456319,0.10719 -0.583984,0.32422 l -1.779297,3.02539 a 0.26460996,0.26460996 0 0 0 0.09766,0.36523 l 2.070312,1.16602 a 0.26460996,0.26460996 0 0 0 0.169922,0.0312 l 1.136715,-0.16792 a 0.26460996,0.26460996 0 0 0 0.146484,-0.0723 l 1.046875,-1.01953 a 0.26460996,0.26460996 0 0 0 0.04297,-0.32422 l -1.765625,-3.0039 c -0.127665,-0.21703 -0.354346,-0.32422 -0.582031,-0.32422 z"
               id="path110805" />
            <path
               style="color:#000000;fill:#fed883;stroke-linecap:round;stroke-linejoin:round;-inkscape-stroke:none"
               d="m 72.271484,271.93228 -2.585937,2.53321 c -0.08641,0.0849 -0.104107,0.21767 -0.04297,0.32226 l 1.048828,1.78711 c 0.07333,0.12374 0.232073,0.16625 0.357422,0.0957 l 2.914063,-1.64844 c 0.105002,-0.0603 0.155679,-0.18418 0.123046,-0.30078 l -0.6875,-2.48633 c -0.135389,-0.48849 -0.736834,-0.67059 -1.126952,-0.30273 z"
               id="path110811"
               sodipodi:nodetypes="ccccccccc" />
            <path
               style="color:#000000;fill:#fed883;stroke-linecap:round;stroke-linejoin:round;-inkscape-stroke:none"
               d="m 66.085986,275.1354 c 0.085,-0.14722 0.205056,-0.0812 0.251954,0 l 1.019531,1.76758 c 0.101361,0.17538 0.354139,0.17649 0.457031,0.002 l 1.146484,-1.94726 c 0.07522,-0.12812 0.03024,-0.29305 -0.09961,-0.36524 l -4.166064,-2.3457 c -0.438132,-0.24822 -1.050581,0.0785 -1.054685,0.58203 v 5.49023 c -0.0018,0.26998 0.354447,0.36892 0.492187,0.13672 z"
               id="path110799"
               sodipodi:nodetypes="ccccccccccc" />
            <path
               style="color:#000000;fill:#fed883;stroke-linecap:round;stroke-linejoin:round;-inkscape-stroke:none"
               d="m 74.472616,275.30352 c -0.05954,0.0513 -0.09318,0.12648 -0.0918,0.20508 l 0.03906,3.60156 c 0.0016,0.14465 0.119019,0.26122 0.263672,0.26172 h 2.199218 c 0.170215,0 0.296158,-0.15838 0.257813,-0.32422 -0.302116,-1.28117 -0.621817,-2.66939 -0.914016,-3.89456 -0.139646,-0.47349 -0.667365,-0.73748 -1.089844,-0.41218 z"
               id="path110835"
               sodipodi:nodetypes="ccccccccc" />
            <path
               style="color:#000000;fill:#fed883;stroke-linecap:round;stroke-linejoin:round;-inkscape-stroke:none"
               d="m 73.894531,274.45182 -3.105469,1.75781 a 0.26460996,0.26460996 0 0 0 -0.09766,0.36523 l 1.56836,2.66797 a 0.26460996,0.26460996 0 0 0 0.228515,0.12891 h 2.195313 a 0.26460996,0.26460996 0 0 0 0.265625,-0.26758 l -0.04492,-4.07031 c -0.0042,-0.50353 -0.571641,-0.83026 -1.009766,-0.58203 z"
               id="path110823" />
            <path
               style="color:#000000;fill:#fed883;stroke-linecap:round;stroke-linejoin:round;-inkscape-stroke:none"
               d="m 62.015625,274.58463 c -0.487453,-0.12635 -0.950595,0.33675 -0.824219,0.82422 l 0.976563,3.76562 a 0.26460996,0.26460996 0 0 0 0.261718,0.19727 l 1.029297,-0.0195 a 0.26460996,0.26460996 0 0 0 0.222657,-0.13086 l 0.451171,-0.76563 a 0.26460996,0.26460996 0 0 0 0.03711,-0.13281 l 0.02344,-2.9668 a 0.26460996,0.26460996 0 0 0 -0.197265,-0.25976 z"
               id="path110793" />
            <path
               style="color:#000000;fill:#fed883;stroke-linecap:round;stroke-linejoin:round;-inkscape-stroke:none"
               d="m 66.794969,274.86971 c -0.127666,-0.21702 -0.356299,-0.32617 -0.584008,-0.32614 -0.227709,4e-5 -0.454389,0.10919 -0.582055,0.32621 l -2.402344,4.08399 c -0.103041,0.17575 0.02284,0.39713 0.226563,0.39844 l 2.755859,0.0195 c 0.09431,10e-4 0.182109,-0.0479 0.230469,-0.12891 l 1.376953,-2.3418 c 0.04904,-0.0823 0.0498,-0.18459 0.002,-0.26757 z"
               id="path110787"
               sodipodi:nodetypes="cccccccccc" />
            <path
               style="color:#000000;fill:#fed883;stroke-linecap:round;stroke-linejoin:round;-inkscape-stroke:none"
               d="m 69.349609,273.91666 c -0.227687,0 -0.454368,0.10914 -0.582031,0.32617 l -2.783203,4.73047 a 0.26460996,0.26460996 0 0 0 0.226562,0.39844 h 6.277344 a 0.26460996,0.26460996 0 0 0 0.228516,-0.39844 l -2.783203,-4.73047 c -0.127663,-0.21703 -0.356297,-0.32617 -0.583985,-0.32617 z"
               id="path110817" />
          </g>
          <path
             style="color:#000000;fill:#dc1c4b;stroke-linecap:round;stroke-linejoin:round;-inkscape-stroke:none"
             d="m 63.071315,289.42578 c -0.652738,0 -1.160108,0.59064 -1.064454,1.23633 a 0.26461097,0.26461097 0 0 0 0.0039,0.0176 l 0.978515,4.49218 c 0.137989,0.63296 0.665599,1.13868 1.337891,1.13868 3.556835,1e-5 7.115039,-10e-6 10.671875,0 0.672292,0 1.199902,-0.50572 1.337891,-1.13868 l 0.978515,-4.49218 a 0.26461097,0.26461097 0 0 0 0.0039,-0.0176 c 0.09565,-0.64569 -0.413669,-1.23633 -1.066406,-1.23633 -4.393739,-10e-6 -8.7879,1e-5 -13.18164,0 z"
             id="path110841" />
          <path
             id="path163819"
             style="color:#000000;fill:#801231;fill-opacity:1;stroke-width:3.77953;stroke-linecap:round;stroke-linejoin:round;-inkscape-stroke:none"
             d="m 274.80664,35.826172 c -9.54658,-0.134918 -11.01863,6.697461 -11.01863,13.209202 0,4.119719 0,8.239438 0,12.359157 0,0 13.71591,-1.6e-5 19.67293,0 2.54094,0 4.5351,-1.912398 5.05664,-4.304687 l 3.69922,-16.976563 c 0.005,-0.02262 0.01,-0.04542 0.0137,-0.06836 0.20794,-1.403727 -0.34137,-2.736381 -1.31445,-3.617188 z"
             transform="matrix(0.26458334,0,0,0.26458334,0,280.06666)"
             sodipodi:nodetypes="cccsccccc" />
          <path
             style="color:#000000;fill:#801231;stroke-linecap:round;stroke-linejoin:round;-inkscape-stroke:none"
             d="m 61.818359,289.42578 a 0.2645835,0.2645835 0 0 0 -0.265625,0.26563 0.2645835,0.2645835 0 0 0 0.265625,0.26367 h 7.845703 7.845704 a 0.2645835,0.2645835 0 0 0 0.263671,-0.26367 0.2645835,0.2645835 0 0 0 -0.263671,-0.26563 h -7.845704 z"
             id="path110784" />
        </g>
        <g
           id="g161745"
           transform="translate(0,-10.583333)">
          <path
             style="color:#000000;fill:#9ccc65;stroke-width:1;stroke-linecap:round;stroke-linejoin:round;-inkscape-stroke:none"
             d="m 76.547708,302.04742 c -0.317641,-0.51697 -0.883742,-0.83711 -1.49611,-0.83702 -0.635239,4.2e-4 -1.168211,0.30031 -1.47354,0.31285 -0.138225,0.006 -0.314168,-0.0529 -0.527586,-0.13329 -0.21342,-0.0804 -0.46266,-0.17961 -0.757133,-0.17956 h -3.3e-5 c -0.689519,0 -1.255101,0.56557 -1.255101,1.25509 1.88e-4,0.0427 0.0048,0.0853 0.0093,0.12774 -0.264134,0.23519 -0.510946,0.51207 -0.510926,0.87376 -5.39e-4,0.13926 0.112493,0.25229 0.25176,0.25176 h 6.269952 c 0.138543,-5e-4 0.250443,-0.11323 0.249909,-0.25176 v -0.24991 c -5e-5,-0.47375 -0.268249,-0.90254 -0.681612,-1.11476 l -0.06512,-0.031 z"
             id="path152226"
             sodipodi:nodetypes="ccscsscccccccccc" />
          <path
             style="color:#000000;fill:#9a605c;stroke-linecap:round;stroke-linejoin:round;-inkscape-stroke:none"
             d="m 70.630859,303.18945 a 0.26460996,0.26460996 0 0 0 -0.261718,0.3086 l 0.357421,2.14453 c 0.120005,0.72 0.746622,1.25195 1.476563,1.25195 h 3.46875 c 0.729941,0 1.356563,-0.53194 1.476562,-1.25195 l 0.357422,-2.14453 a 0.26460996,0.26460996 0 0 0 -0.259765,-0.3086 z"
             id="path152232" />
          <path
             id="path156660"
             style="color:#000000;fill:#66342d;fill-opacity:1;stroke-width:1;stroke-linecap:round;stroke-linejoin:round;-inkscape-stroke:none"
             d="m 70.630832,303.18928 a 0.26460996,0.26460996 0 0 0 -0.261482,0.30903 l 0.124539,0.7493 h 5.693709 a 0.26460996,0.26460996 0 0 1 0.259935,0.30903 l -0.357603,2.14405 c -0.0081,0.0484 -0.01849,0.096 -0.031,0.14263 0.55476,-0.14945 0.991259,-0.61247 1.089337,-1.20096 l 0.357603,-2.14405 a 0.26460996,0.26460996 0 0 0 -0.259934,-0.30903 z" />
        </g>
      </g>
      <path
         id="rect12857"
         style="color:#000000;fill:#000000;stroke-width:1;stroke-linecap:round;stroke-linejoin:round;-inkscape-stroke:none"
         d="m 64.695278,282.83031 c -0.438126,-0.24822 -1.005591,0.0784 -1.009758,0.58188 l -0.0181,2.18281 -1.651579,-0.42685 c -0.487464,-0.12638 -0.950619,0.33677 -0.824238,0.82424 l 0.889867,3.43338 h -0.26303 c -0.146934,-5.8e-4 -0.266192,0.11869 -0.265618,0.26562 5.29e-4,0.14613 0.119491,0.26412 0.265618,0.26355 h 0.330729 c -0.122553,0.20504 -0.17943,0.45152 -0.141592,0.70693 l 0.982879,4.50981 c 0.137989,0.63296 0.66561,1.13894 1.337903,1.13894 h 5.773291 c 0.145319,-5.5e-4 0.262985,-0.11823 0.263551,-0.26355 5.29e-4,-0.14612 -0.117425,-0.26504 -0.263551,-0.26561 h -1.916679 l 1.657252,-1.66605 c 0.112916,-0.11292 0.126886,-0.25706 0,-0.38394 l -1.922362,-1.92082 1.74408,-1.74408 0.871263,0.87075 c 0.10342,0.10388 0.271751,0.10388 0.375171,0 0.103875,-0.10342 0.103875,-0.27123 0,-0.37465 l -0.607713,-0.60772 h 7.207311 c 0.145319,-5.5e-4 0.262985,-0.11823 0.263551,-0.26355 5.29e-4,-0.14612 -0.117425,-0.26504 -0.263551,-0.26561 h -0.417545 l -0.338997,-1.44436 c 0.338503,-1.42457 0.60783,-2.83772 0.984951,-4.23127 3e-6,-6.6e-4 3e-6,-10e-4 0,-0.002 0.126119,-0.48676 -0.335486,-0.94875 -0.822171,-0.82424 h -0.0021 l -3.255616,0.83458 -0.259932,-0.94 c -0.06718,-0.24264 -0.258609,-0.40771 -0.478523,-0.46664 -0.219916,-0.0589 -0.469064,-0.0127 -0.648541,0.16382 l -1.300179,1.27382 -1.592667,-2.70939 c -0.127664,-0.21703 -0.354192,-0.32402 -0.581877,-0.32402 l 7.7e-5,-10e-6 c -0.227685,0 -0.45628,0.10698 -0.583944,0.32401 l -1.647444,2.8019 z m 4.101558,-1.56114 c 0.04769,0 0.09555,0.0269 0.127124,0.0806 l 1.658813,2.8205 -0.656807,0.64337 c -0.129,-0.20864 -0.352957,-0.31367 -0.576191,-0.31367 -0.227687,0 -0.454731,0.10905 -0.582395,0.32608 l -0.131257,0.22272 -1.610239,-0.90744 1.643827,-2.79156 c 0.03158,-0.0537 0.07944,-0.0806 0.127125,-0.0806 z m -0.05374,1.15238 c -0.174414,-7.7e-4 -0.316,0.14081 -0.315228,0.31523 5.29e-4,0.1734 0.141825,0.31341 0.315228,0.31264 0.172394,-6.6e-4 0.311986,-0.14025 0.312642,-0.31264 7.94e-4,-0.17341 -0.13924,-0.31457 -0.312642,-0.31523 z m 4.007506,0.4222 c 0.06094,-9e-4 0.117192,0.0402 0.137977,0.11524 l 0.633035,2.28771 -2.506306,1.418 -0.813387,-1.38286 2.440678,-2.389 c 0.0333,-0.0328 0.07144,-0.0485 0.108003,-0.0491 z m -4.382641,2.66133 -0.776697,1.32033 -0.796335,-1.37046 c 5e-6,-6.6e-4 5e-6,-5.5e-4 0,-0.002 -0.127664,-0.21702 -0.356256,-0.32659 -0.583944,-0.32659 -0.227684,0 -0.45421,0.10906 -0.581874,0.32608 l -1.451076,2.46703 0.03669,-4.50412 c 7.94e-4,-0.0935 0.06248,-0.15251 0.13901,-0.15038 l -3.7e-5,2e-5 c 0.0255,7.1e-4 0.053,0.008 0.0801,0.0238 z m 1.028841,-2.17867 c -0.174414,-7.7e-4 -0.316,0.14081 -0.315228,0.31522 5.3e-4,0.17341 0.141825,0.31341 0.315228,0.31264 0.172394,-6.6e-4 0.311986,-0.14024 0.312642,-0.31264 7.94e-4,-0.1734 -0.13924,-0.31456 -0.312642,-0.31522 z m 7.693586,0.10283 c 0.09765,-0.002 0.163772,0.0805 0.136427,0.18604 -0.288489,1.06665 -0.512757,2.13328 -0.748276,3.19567 l -0.25218,-1.07487 c -0.04259,-0.24815 -0.216487,-0.42894 -0.429432,-0.50953 -0.212945,-0.0806 -0.464198,-0.0601 -0.660424,0.0977 -0.0021,10e-4 -0.0038,0.003 -0.0057,0.004 l -0.233577,0.19792 c -0.06091,-0.41355 -0.507733,-0.67747 -0.898652,-0.53847 l -0.198956,-0.71881 3.247348,-0.83355 c 0.01508,-0.004 0.02946,-0.006 0.04341,-0.006 z m -4.584216,0.70487 c -0.172395,6.6e-4 -0.311986,0.14025 -0.312642,0.31264 -7.94e-4,0.1734 0.139239,0.31457 0.312642,0.31523 0.174413,7.6e-4 0.316,-0.14081 0.315227,-0.31523 -5.29e-4,-0.1734 -0.141825,-0.31341 -0.315227,-0.31264 z m 3.373437,0.0563 c -0.174008,-4.8e-4 -0.315192,0.1407 -0.314708,0.31471 2.64e-4,0.1734 0.141306,0.31364 0.314708,0.31315 0.172596,-6.6e-4 0.31227,-0.14056 0.312643,-0.31315 5.29e-4,-0.17321 -0.139441,-0.31405 -0.312643,-0.31471 z m -10.923363,0.16691 c -0.173201,-4.8e-4 -0.314052,0.13944 -0.314711,0.31264 5.29e-4,0.17321 0.14151,0.31313 0.314711,0.31265 0.172395,-6.7e-4 0.311987,-0.14025 0.312643,-0.31265 -5.29e-4,-0.17239 -0.140248,-0.31198 -0.312643,-0.31264 z m 6.59133,0.62529 c -0.174414,-7.7e-4 -0.316,0.14081 -0.315227,0.31522 5.29e-4,0.17341 0.141824,0.31341 0.315227,0.31264 0.172394,-6.6e-4 0.311986,-0.14024 0.312642,-0.31264 7.94e-4,-0.1734 -0.13924,-0.31456 -0.312642,-0.31522 z m -2.197799,0.0305 c 0.04769,0 0.09503,0.0269 0.126606,0.0806 l 2.547649,4.33204 h -5.349028 l 2.547649,-4.33204 c 0.03157,-0.0537 0.07944,-0.0806 0.127124,-0.0806 z m 5.066874,4.41265 h -1.776637 l -1.35599,-2.30528 2.87011,-1.62626 c 0.0271,-0.0154 0.05441,-0.023 0.0801,-0.0238 v 0 c 0.07708,-0.002 0.1398,0.0567 0.14056,0.15038 z m -8.205703,-3.78529 c 0.04769,0 0.09555,0.0264 0.127125,0.0801 l 0.944647,1.62935 -1.221116,2.07585 H 63.90411 l 2.179712,-3.7052 c 0.03158,-0.0537 0.07944,-0.0801 0.127124,-0.0801 z m -2.547646,0.50126 -0.02222,2.69027 -0.349332,0.59377 h -0.663525 l -0.92501,-3.56619 c -0.02735,-0.1055 0.03826,-0.18804 0.135911,-0.18604 z m 11.899014,-0.4439 c 0.06788,-0.004 0.128151,0.0439 0.142629,0.12816 l 0.843359,3.59978 h -1.60197 l -0.03514,-3.21531 0.557588,-0.47387 c 0.03033,-0.0244 0.06268,-0.0371 0.09353,-0.0388 z m -12.709819,0.77359 c -0.17421,-7.6e-4 -0.315709,0.1405 -0.315225,0.31471 2.65e-4,0.17361 0.141621,0.31393 0.315225,0.31316 0.172598,-6.6e-4 0.312272,-0.14056 0.312645,-0.31316 5.29e-4,-0.1732 -0.139444,-0.31405 -0.312645,-0.31471 z m 10.779704,0.11886 c -0.172394,6.6e-4 -0.311986,0.14025 -0.312642,0.31264 -7.94e-4,0.17341 0.13924,0.31457 0.312642,0.31523 0.174414,7.7e-4 0.316,-0.14081 0.315228,-0.31523 -5.29e-4,-0.1734 -0.141825,-0.31341 -0.315228,-0.31264 z m -4.438488,0.0832 c -0.174414,-7.7e-4 -0.316,0.14081 -0.315228,0.31523 5.3e-4,0.1734 0.141825,0.31341 0.315228,0.31264 0.172394,-6.6e-4 0.311986,-0.14025 0.312642,-0.31264 7.94e-4,-0.17341 -0.13924,-0.31457 -0.312642,-0.31523 z m 0.637169,0.97875 c -0.174413,-7.7e-4 -0.315997,0.14081 -0.315224,0.31523 5.29e-4,0.1734 0.141822,0.31341 0.315224,0.31264 0.172398,-6.6e-4 0.311989,-0.14025 0.312645,-0.31264 7.94e-4,-0.17341 -0.139239,-0.31457 -0.312645,-0.31523 z m 5.772775,0.25115 c -0.172797,3.7e-4 -0.312785,0.14036 -0.313158,0.31316 -5.29e-4,0.1734 0.139755,0.31433 0.313158,0.31471 0.174008,4.7e-4 0.315195,-0.1407 0.314711,-0.31471 -2.64e-4,-0.17341 -0.141308,-0.31364 -0.314711,-0.31316 z m -2.402435,0.0925 c -0.172599,3.7e-4 -0.312502,0.14005 -0.313161,0.31264 -7.94e-4,0.17361 0.139554,0.31485 0.313161,0.31523 0.174212,4.7e-4 0.315478,-0.14102 0.314708,-0.31523 -5.29e-4,-0.1732 -0.141507,-0.31312 -0.314708,-0.31264 z m -7.617109,0.12609 c -0.174209,-7.7e-4 -0.315708,0.1405 -0.315224,0.31471 2.64e-4,0.1736 0.141621,0.31393 0.315224,0.31316 0.172596,-6.6e-4 0.31227,-0.14056 0.312643,-0.31316 5.29e-4,-0.1732 -0.139441,-0.31405 -0.312643,-0.31471 z m 3.139345,0.31471 c -0.173604,-7.7e-4 -0.314851,0.13955 -0.315227,0.31316 -5.29e-4,0.17421 0.141015,0.31548 0.315227,0.31471 0.173202,-6.6e-4 0.313124,-0.14151 0.312642,-0.31471 -2.64e-4,-0.1726 -0.140046,-0.3125 -0.312642,-0.31316 z m -3.934127,1.51825 -1.481047,1.48053 -0.753444,-0.75396 c -0.0011,-9.2e-4 -0.0021,-0.002 -0.0031,-0.003 l -0.02068,-0.0951 c -0.04973,-0.33565 0.20174,-0.6289 0.541052,-0.6289 z m 1.275374,0 h 2.960542 l -1.480013,1.48053 z m -0.638204,0.11059 1.744596,1.7446 -1.744596,1.74408 -1.74408,-1.74408 z m 6.792349,0.42478 c -0.886812,0 -1.495398,0.78425 -1.314646,1.45883 -0.239225,0.13811 -0.426601,0.38002 -0.502295,0.65629 h -0.03669 c -0.146127,5.8e-4 -0.264123,0.11949 -0.263552,0.26561 5.3e-4,0.14532 0.118232,0.26299 0.263552,0.26355 h 0.04082 l 0.320394,1.92392 c 0.119999,0.72001 0.746972,1.25212 1.476912,1.25212 h 3.468524 c 0.729938,0 1.356394,-0.53211 1.476393,-1.25212 l 0.320913,-1.92392 h 0.04082 c 0.14532,-5.5e-4 0.262985,-0.11823 0.263551,-0.26355 5.3e-4,-0.14612 -0.117424,-0.26504 -0.263551,-0.26561 -0.115594,-0.55842 -0.369133,-1.00021 -0.789615,-1.2113 -0.420777,-0.52908 -1.048144,-0.89326 -1.591635,-0.90382 -0.670219,4.5e-4 -1.232276,0.31491 -1.554427,0.32815 -0.145836,0.006 -0.331383,-0.0557 -0.556554,-0.14056 -0.289049,-0.0871 -0.554508,-0.18464 -0.79892,-0.18759 z m 0,0.52917 c 0.187643,-3e-5 0.38898,0.07 0.6134,0.15451 0.39974,0.10303 0.61546,0.33399 0.82424,0.6873 0.0385,0.14061 0.183277,0.22355 0.324012,0.18552 0.141393,-0.0376 0.225483,-0.1827 0.187584,-0.32402 -0.0449,-0.16599 -0.130493,-0.30497 -0.226343,-0.42271 0.419462,-0.0915 0.80936,-0.28035 1.187008,-0.2806 0.32244,-5e-5 0.626327,0.11687 0.861962,0.31987 -0.220538,0.0361 -0.471437,0.12957 -0.652671,0.35812 -0.09036,0.11441 -0.07123,0.28031 0.04289,0.37104 0.114417,0.0904 0.266547,0.0667 0.371036,-0.0434 0.227089,-0.18642 0.434578,-0.24581 0.706416,-0.16381 0.314132,0.11417 0.521896,0.40914 0.521933,0.74414 h -6.039942 c 0.05991,-0.1684 0.17636,-0.31361 0.332798,-0.4098 0.04852,-0.0126 0.153926,-0.0377 0.279569,-0.0491 0.172686,-0.0157 0.363112,0.0105 0.435631,0.0605 0.119825,0.0826 0.283607,0.0527 0.366903,-0.0667 0.08357,-0.1207 0.05304,-0.2862 -0.06821,-0.36897 -0.270055,-0.15513 -0.565687,-0.16927 -0.841809,-0.14418 0.08269,-0.35063 0.395938,-0.60771 0.773594,-0.60771 z m -9.458336,0.61598 0.182933,0.18294 -0.11472,0.12815 z m 4.785239,0.5488 1.743046,1.74357 -1.744081,1.74408 -1.743562,-1.74357 z m -4.22765,0.01 1.734261,1.73426 -1.429371,1.43092 c -0.05183,-0.0899 -0.09132,-0.19102 -0.115237,-0.30075 l -0.540536,-2.4753 z m 7.623823,0.94051 h 5.991365 l -0.30644,1.83813 c -0.07807,0.46843 -0.480087,0.80874 -0.954979,0.80874 h -3.468524 c -0.474892,0 -0.875358,-0.34031 -0.953428,-0.80874 z m 5.088581,0.8661 c -0.12517,0.006 -0.229146,0.0985 -0.249082,0.22221 l -0.119372,0.72037 c -0.02429,0.14413 0.07289,0.28066 0.21704,0.30489 0.143952,0.024 0.280133,-0.0731 0.304374,-0.21704 l 0.119373,-0.72244 c 0.02429,-0.14413 -0.0729,-0.28066 -0.217041,-0.30489 -0.01828,-0.003 -0.0368,-0.004 -0.05529,-0.003 z m -10.604522,0.30179 1.478979,1.47898 h -2.576587 c -0.113191,0 -0.219334,-0.0237 -0.315743,-0.0656 z"
         sodipodi:nodetypes="cccccccsccccscscccccccccccsccccccccccccccccccscccsccccscccccscccccsccccsccccccccccccscccsccccccssccccccccccccccccccccsccccsccccssccscccccscccccccscccccsccccccccccccccccccccccccccccccccccccccccccccccccccccccccccccscccsscccscccscccccccccccccccccssccccccccccccccccccccccssccccccccccccscc" />
    </g>
  </g>
</svg>
