<?xml version="1.0" encoding="UTF-8" standalone="no"?>
<svg
   inkscape:export-ydpi="576"
   inkscape:export-xdpi="576"
   inkscape:export-filename="/media/taufikramadhan/Data/Tr Design Studio/Project Design/TR Creative Design/Icon Design/Project Hiring/Icon Icons/009 -  Hotel And Holidays/Send/4 - Filled Line/SVG/24 - Doorknob.png"
   width="64pt"
   height="64pt"
   viewBox="0 0 22.577778 22.577778"
   version="1.1"
   id="svg831"
   inkscape:version="1.1.1 (1:1.1+202109281949+c3084ef5ed)"
   sodipodi:docname="25 - Breakfast.svg"
   xmlns:inkscape="http://www.inkscape.org/namespaces/inkscape"
   xmlns:sodipodi="http://sodipodi.sourceforge.net/DTD/sodipodi-0.dtd"
   xmlns="http://www.w3.org/2000/svg"
   xmlns:svg="http://www.w3.org/2000/svg"
   xmlns:rdf="http://www.w3.org/1999/02/22-rdf-syntax-ns#"
   xmlns:cc="http://creativecommons.org/ns#"
   xmlns:dc="http://purl.org/dc/elements/1.1/">
  <defs
     id="defs825">
    <pattern
       id="EMFhbasepattern"
       patternUnits="userSpaceOnUse"
       width="6"
       height="6"
       x="0"
       y="0" />
    <pattern
       id="EMFhbasepattern-9"
       patternUnits="userSpaceOnUse"
       width="6"
       height="6"
       x="0"
       y="0" />
    <pattern
       id="EMFhbasepattern-0"
       patternUnits="userSpaceOnUse"
       width="6"
       height="6"
       x="0"
       y="0" />
    <pattern
       id="EMFhbasepattern-7"
       patternUnits="userSpaceOnUse"
       width="6"
       height="6"
       x="0"
       y="0" />
    <pattern
       id="EMFhbasepattern-2"
       patternUnits="userSpaceOnUse"
       width="6"
       height="6"
       x="0"
       y="0" />
    <pattern
       id="EMFhbasepattern-98"
       patternUnits="userSpaceOnUse"
       width="6"
       height="6"
       x="0"
       y="0" />
    <pattern
       id="EMFhbasepattern-6"
       patternUnits="userSpaceOnUse"
       width="6"
       height="6"
       x="0"
       y="0" />
    <pattern
       id="EMFhbasepattern-01"
       patternUnits="userSpaceOnUse"
       width="6"
       height="6"
       x="0"
       y="0" />
    <pattern
       id="EMFhbasepattern-07"
       patternUnits="userSpaceOnUse"
       width="6"
       height="6"
       x="0"
       y="0" />
    <pattern
       id="EMFhbasepattern-8"
       patternUnits="userSpaceOnUse"
       width="6"
       height="6"
       x="0"
       y="0" />
    <pattern
       id="EMFhbasepattern-4"
       patternUnits="userSpaceOnUse"
       width="6"
       height="6"
       x="0"
       y="0" />
    <pattern
       id="EMFhbasepattern-40"
       patternUnits="userSpaceOnUse"
       width="6"
       height="6"
       x="0"
       y="0" />
    <pattern
       id="EMFhbasepattern-08"
       patternUnits="userSpaceOnUse"
       width="6"
       height="6"
       x="0"
       y="0" />
    <pattern
       id="EMFhbasepattern-04"
       patternUnits="userSpaceOnUse"
       width="6"
       height="6"
       x="0"
       y="0" />
    <pattern
       id="EMFhbasepattern-014"
       patternUnits="userSpaceOnUse"
       width="6"
       height="6"
       x="0"
       y="0" />
    <pattern
       id="EMFhbasepattern-27"
       patternUnits="userSpaceOnUse"
       width="6"
       height="6"
       x="0"
       y="0" />
    <pattern
       id="EMFhbasepattern-09"
       patternUnits="userSpaceOnUse"
       width="6"
       height="6"
       x="0"
       y="0" />
    <pattern
       id="EMFhbasepattern-5"
       patternUnits="userSpaceOnUse"
       width="6"
       height="6"
       x="0"
       y="0" />
    <pattern
       id="EMFhbasepattern-018"
       patternUnits="userSpaceOnUse"
       width="6"
       height="6"
       x="0"
       y="0" />
  </defs>
  <sodipodi:namedview
     id="base"
     pagecolor="#ffffff"
     bordercolor="#666666"
     borderopacity="1.0"
     inkscape:pageopacity="0.0"
     inkscape:pageshadow="2"
     inkscape:zoom="3.0761719"
     inkscape:cx="31.370159"
     inkscape:cy="45.83619"
     inkscape:document-units="pt"
     inkscape:current-layer="layer1"
     showgrid="false"
     units="pt"
     inkscape:window-width="1366"
     inkscape:window-height="705"
     inkscape:window-x="0"
     inkscape:window-y="31"
     inkscape:window-maximized="1"
     inkscape:pagecheckerboard="true"
     inkscape:showpageshadow="false"
     inkscape:object-paths="true"
     inkscape:snap-intersection-paths="true"
     inkscape:snap-smooth-nodes="true"
     inkscape:snap-midpoints="true"
     showguides="false"
     inkscape:snap-bbox="true"
     inkscape:bbox-nodes="true"
     inkscape:snap-nodes="false"
     inkscape:snap-global="true"
     inkscape:document-rotation="0">
    <inkscape:grid
       type="xygrid"
       id="grid1378" />
    <sodipodi:guide
       position="0.97013831,21.607643"
       orientation="78.000048,0"
       id="guide1380"
       inkscape:locked="false" />
    <sodipodi:guide
       position="0.97013831,0.97013129"
       orientation="0,78.000005"
       id="guide1382"
       inkscape:locked="false" />
    <sodipodi:guide
       position="21.607639,0.97013129"
       orientation="-78.000048,0"
       id="guide1384"
       inkscape:locked="false" />
    <sodipodi:guide
       position="21.607639,21.607643"
       orientation="0,-78.000005"
       id="guide1386"
       inkscape:locked="false" />
  </sodipodi:namedview>
  <metadata
     id="metadata828">
    <rdf:RDF>
      <cc:Work
         rdf:about="">
        <dc:format>image/svg+xml</dc:format>
        <dc:type
           rdf:resource="http://purl.org/dc/dcmitype/StillImage" />
      </cc:Work>
    </rdf:RDF>
  </metadata>
  <g
     inkscape:label="Icon"
     inkscape:groupmode="layer"
     id="layer1"
     transform="translate(0,-274.42223)">
    <g
       id="g2381"
       transform="matrix(1.2581834,0,0,1.2581834,-0.25047327,-70.270654)"
       style="stroke-width:0.794797">
      <g
         id="g8454"
         transform="translate(82.877285,-97.108173)"
         style="display:inline;stroke-width:0.794797">
        <path
           style="color:#000000;display:inline;fill:#5b6571;stroke-width:0.794797;stroke-linecap:round;stroke-linejoin:round;stroke-miterlimit:1.5;-inkscape-stroke:none"
           d="m -68.14909,378.05664 a 0.26460996,0.26460996 0 0 0 -0.265625,0.26563 v 1.05859 a 0.26460996,0.26460996 0 0 0 0.265625,0.26367 h 0.792969 c 0.149258,0 0.265626,0.11637 0.265625,0.26563 v 1.05859 c 10e-7,0.14926 -0.116367,0.26367 -0.265625,0.26367 h -0.792969 a 0.26460996,0.26460996 0 0 0 -0.265625,0.26563 v 1.05664 a 0.26460996,0.26460996 0 0 0 0.265625,0.26562 h 1.322266 c 0.728328,0 1.322265,-0.59589 1.322265,-1.32422 v -2.11523 c 0,-0.72832 -0.593937,-1.32422 -1.322265,-1.32422 z"
           id="path327052" />
        <path
           style="color:#000000;display:inline;fill:#d9d9c4;stroke-width:0.794797;stroke-linecap:round;stroke-linejoin:round;stroke-miterlimit:1.5;-inkscape-stroke:none"
           d="m -80.584637,385.99414 a 0.26460996,0.26460996 0 0 0 -0.265625,0.26563 v 0.52929 c 0,0.43516 0.35976,0.79297 0.794922,0.79297 h 12.435547 c 0.435161,0 0.792969,-0.35781 0.792969,-0.79297 v -0.52929 a 0.26460996,0.26460996 0 0 0 -0.263672,-0.26563 z"
           id="path327058" />
        <path
           id="path359062"
           style="color:#000000;display:inline;fill:#b7b79a;fill-opacity:1;stroke-width:0.794797;stroke-linecap:round;stroke-linejoin:round;stroke-miterlimit:1.5;-inkscape-stroke:none"
           d="m -80.584749,385.99405 a 0.26460996,0.26460996 0 0 0 -0.265615,0.26562 v 0.52916 c 0,0.0922 0.01643,0.181 0.04599,0.26355 h 13.931967 c 0.0294,-0.0825 0.04547,-0.17144 0.04547,-0.26355 v -0.52916 a 0.26460996,0.26460996 0 0 0 -0.263548,-0.26562 z" />
        <path
           style="color:#000000;display:inline;fill:#ebefd2;stroke-width:0.794797;stroke-linecap:round;stroke-linejoin:round;stroke-miterlimit:1.5;-inkscape-stroke:none"
           d="m -80.850262,383.34961 c -0.290868,0 -0.591207,0.1373 -0.779297,0.41211 -0.188089,0.27481 -0.277343,0.65911 -0.277343,1.17578 0,0.51668 0.08925,0.89902 0.277343,1.17383 0.188089,0.27481 0.488429,0.41211 0.779297,0.41211 h 14.289063 c 0.290868,0 0.591207,-0.1373 0.779297,-0.41211 0.188089,-0.27481 0.277343,-0.65715 0.277343,-1.17383 0,-0.51667 -0.08925,-0.90097 -0.277343,-1.17578 -0.18809,-0.27481 -0.488429,-0.41211 -0.779297,-0.41211 h -1.587891 -12.410156 z"
           id="path327064" />
        <path
           id="path352070"
           style="color:#000000;display:inline;fill:#143441;fill-opacity:1;stroke-width:0.794797;stroke-linecap:round;stroke-linejoin:round;stroke-miterlimit:1.5;-inkscape-stroke:none"
           d="m -68.149332,378.05655 a 0.26460996,0.26460996 0 0 0 -0.265616,0.26562 v 1.05884 a 0.26460996,0.26460996 0 0 0 0.265616,0.26355 h 0.793234 v -1.58801 z m 0,3.17603 a 0.26460996,0.26460996 0 0 0 -0.265616,0.26562 v 1.05626 a 0.26460996,0.26460996 0 0 0 0.265616,0.26562 h 0.793234 v -1.5875 z" />
        <path
           style="color:#000000;display:inline;fill:#b6d1e7;stroke-width:0.794797;stroke-linecap:round;stroke-linejoin:round;stroke-miterlimit:1.5;-inkscape-stroke:none"
           d="m -73.442059,384.9375 h 4.234375 c 0.728323,0 1.322266,-0.5959 1.322266,-1.32422 v -6.34961 c 0,-0.72832 -0.593943,-1.32226 -1.322266,-1.32226 h -4.234375 c -0.728323,0 -1.322265,0.59394 -1.322265,1.32226 v 1.0586 l 0.56782,6.14594 z"
           id="path330210" />
        <path
           id="path345636"
           style="display:inline;fill:#aabfd0;fill-opacity:1;stroke-width:0.794797;stroke-linecap:round;stroke-linejoin:round;stroke-miterlimit:1.5"
           d="m -74.764432,377.4354 v 0.88677 l 0.567926,6.14587 0.754475,0.46922 h 1.529104 c 0.417867,-0.40279 0.680064,-0.96645 0.680064,-1.5875 v -1.64641 c 0.269168,-0.31875 0.529166,-0.71844 0.529166,-1.264 v -0.79479 c 0,-1.21265 -0.996513,-2.20916 -2.209167,-2.20916 z" />
        <path
           style="color:#000000;display:inline;fill:#ffa726;stroke-width:0.794797;stroke-linecap:round;stroke-linejoin:round;stroke-miterlimit:1.5;-inkscape-stroke:none"
           d="m -77.67448,378.05664 a 0.26460996,0.26460996 0 0 0 -0.263672,0.25391 l -0.265625,6.34961 a 0.26460996,0.26460996 0 0 0 0.265625,0.27734 h 4.496093 c 0.874897,0 1.587891,-0.713 1.587891,-1.58789 V 381.5 381.498 c 0.280817,-0.28663 0.529297,-0.62652 0.529297,-1.0586 v -0.79492 c 0,-0.8749 -0.71299,-1.58789 -1.587891,-1.58789 z"
           id="path327076" />
        <path
           style="color:#000000;display:inline;fill:#f57c00;fill-opacity:1;stroke-width:0.794797;stroke-linecap:round;stroke-linejoin:round;stroke-miterlimit:1.5;-inkscape-stroke:none"
           d="m -79.262501,378.05664 c -0.874901,0 -1.587891,0.71299 -1.587891,1.58789 v 0.79492 c 0,0.43182 0.248786,0.77201 0.529297,1.0586 v 1.85156 c 0,0.87489 0.712994,1.58789 1.587891,1.58789 h 2.117187 c 0.874897,0 1.587891,-0.713 1.587891,-1.58789 v -1.85156 c 0.280512,-0.28659 0.529297,-0.62678 0.529297,-1.0586 v -0.79492 c 0,-0.8749 -0.712989,-1.58789 -1.587891,-1.58789 z"
           id="path381389" />
        <path
           id="path336223"
           style="color:#000000;display:inline;fill:#f57c00;fill-opacity:1;stroke-width:0.794797;stroke-linecap:round;stroke-linejoin:round;stroke-miterlimit:1.5;-inkscape-stroke:none"
           d="m -71.324848,379.64456 c 0,-0.93536 -0.688904,-1.58798 -1.588006,-1.58798 h -0.529166 l -4.232313,-3e-5 v 0.52916 h 4.761469 c 0.707578,0.01 1.052039,0.42369 1.058849,1.05885 v 0.79479 c 0,0.43208 -0.248348,0.77222 -0.529167,1.05885 v 0.002 1.85002 c 0,0.87489 -0.713118,1.5875 -1.588016,1.5875 h 0.529167 c 0.874898,0 1.588016,-0.71261 1.588016,-1.5875 v -1.85002 -0.002 c 0.280818,-0.28663 0.529167,-0.62677 0.529167,-1.05885 z"
           sodipodi:nodetypes="cccccccsccscsscccc" />
        <path
           style="color:#000000;display:inline;fill:#ffcc80;stroke-width:0.794797;stroke-linecap:round;stroke-linejoin:round;stroke-miterlimit:1.5;-inkscape-stroke:none"
           d="m -79.791668,378.05664 c -0.874901,0 -1.587891,0.71299 -1.587891,1.58789 v 0.79492 c 0,0.43182 0.248786,0.77201 0.529297,1.0586 v 1.85156 c 0,0.87489 0.712994,1.58789 1.587891,1.58789 h 2.117187 c 0.874897,0 1.587891,-0.713 1.587891,-1.58789 v -1.85156 c 0.280512,-0.28659 0.529297,-0.62678 0.529297,-1.0586 v -0.79492 c 0,-0.8749 -0.712989,-1.58789 -1.587891,-1.58789 z"
           id="path327082" />
      </g>
      <path
         id="path23693"
         style="color:#000000;display:inline;fill:#000000;stroke-width:0.794797;stroke-linecap:round;stroke-linejoin:round;stroke-miterlimit:1.5;-inkscape-stroke:none"
         d="m 10.280681,275.39264 a 0.2645835,0.2645835 0 0 0 -0.142111,0.0439 0.2645835,0.2645835 0 0 0 -0.07235,0.36742 c 0.09842,0.14763 0.118319,0.27309 0.10542,0.42788 -0.01291,0.1548 -0.07079,0.33434 -0.136943,0.53278 -0.06615,0.19843 -0.1415733,0.41421 -0.1617473,0.65629 -0.02016,0.24208 0.02711,0.51454 0.1932703,0.76378 a 0.2645835,0.2645835 0 0 0 0.366903,0.0744 0.2645835,0.2645835 0 0 0 0.07235,-0.36743 c -0.09842,-0.14762 -0.118319,-0.27102 -0.10542,-0.42581 0.01291,-0.1548 0.07079,-0.33487 0.136943,-0.5333 0.06615,-0.19844 0.141573,-0.41576 0.161748,-0.65784 0.02016,-0.24208 -0.02711,-0.51454 -0.193271,-0.76378 a 0.2645835,0.2645835 0 0 0 -0.224792,-0.11834 z m 2.52181,5.3e-4 a 0.2645835,0.2645835 0 0 0 -0.129191,0.0434 0.2645835,0.2645835 0 0 0 -0.0739,0.36742 c 0.09842,0.14763 0.118319,0.27309 0.10542,0.42788 -0.01291,0.1548 -0.07079,0.33486 -0.136943,0.5333 -0.06615,0.19843 -0.140022,0.41369 -0.160197,0.65577 -0.02016,0.24209 0.02556,0.51454 0.19172,0.76378 a 0.2645835,0.2645835 0 0 0 0.366903,0.0744 0.2645835,0.2645835 0 0 0 0.07441,-0.36742 c -0.09842,-0.14763 -0.118319,-0.27103 -0.105421,-0.42582 0.01291,-0.1548 0.06873,-0.33435 0.134877,-0.53278 0.06615,-0.19844 0.141573,-0.41628 0.161748,-0.65836 0.02016,-0.24208 -0.02506,-0.51454 -0.191204,-0.76378 a 0.2645835,0.2645835 0 0 0 -0.170016,-0.11317 0.2645835,0.2645835 0 0 0 -0.06821,-0.005 z m -1.260388,1.19063 a 0.2645835,0.2645835 0 0 0 -0.239779,0.18086 c -0.06614,0.19843 -0.142091,0.41421 -0.162263,0.65629 -0.02016,0.24207 0.02763,0.51454 0.193786,0.76378 a 0.2645835,0.2645835 0 0 0 0.364836,0.0744 0.2645835,0.2645835 0 0 0 0.07442,-0.36742 c -0.09842,-0.14764 -0.118319,-0.27103 -0.105421,-0.42582 0.01288,-0.1548 0.07079,-0.33487 0.136943,-0.5333 a 0.2645835,0.2645835 0 0 0 -0.168465,-0.3359 0.2645835,0.2645835 0 0 0 -0.09405,-0.0129 z m -2.1068483,2.24947 c -0.7283238,0 -1.3224007,0.59408 -1.3224007,1.3224 v 0.79272 H 6.2612865 3.0857705 c -0.8749004,0 -1.588016,0.71311 -1.588016,1.58801 v 0.79479 c 0,0.46886 0.2047399,0.89275 0.5291667,1.18339 v 1.72703 c -0.2908697,0 -0.5911903,0.13705 -0.7792799,0.41186 -0.1880897,0.27481 -0.27750299,0.65896 -0.27750299,1.17564 0,0.51667 0.089408,0.89927 0.27750299,1.17408 0.188087,0.27481 0.4884102,0.41186 0.7792799,0.41186 v 0.26562 c 0,0.43516 0.3596217,0.79323 0.7947819,0.79323 H 15.257639 c 0.43516,0 0.792715,-0.35807 0.792715,-0.79323 v -0.26562 h 0.265618 c 0.290867,0 0.591191,-0.13705 0.77928,-0.41186 0.18809,-0.27481 0.277503,-0.65741 0.277503,-1.17408 0,-0.51668 -0.08941,-0.90083 -0.277503,-1.17564 -0.188089,-0.27481 -0.488413,-0.41186 -0.77928,-0.41186 h -1.323951 v -0.52969 h 1.058333 c 0.72833,0 1.322401,-0.59562 1.322401,-1.32395 v -2.11512 c 0,-0.72832 -0.594071,-1.32446 -1.322401,-1.32446 h -1.058333 v -0.79272 c 0,-0.72832 -0.594077,-1.3224 -1.322401,-1.3224 z m 0,0.52917 H 13.66962 c 0.44432,0 0.792718,0.34892 0.792718,0.79323 v 6.34948 c 0,0.44432 -0.348398,0.79479 -0.792718,0.79479 h -3.052527 c 0.252193,-0.28124 0.406178,-0.65217 0.406178,-1.05833 v -1.72496 c 0.325393,-0.2907 0.529167,-0.71555 0.529167,-1.18546 v -0.79479 c 0,-0.8749 -0.713116,-1.58801 -1.5880163,-1.58801 h -1.322401 v -0.79272 c 0,-0.44431 0.3489166,-0.79323 0.793234,-0.79323 z m -1.9921273,2.11511 h 2.5212943 c 0.5909043,0 1.0588493,0.46795 1.0588493,1.05885 v 0.79479 c 0,0.34211 -0.157282,0.64031 -0.404109,0.83354 a 0.2645835,0.2645835 0 0 0 -0.04703,0.0377 c 0,0 -0.460721,0.45114 -1.1368803,0.45114 a 0.2645835,0.2645835 0 0 0 -0.2635514,0.26355 0.2645835,0.2645835 0 0 0 0.2635514,0.26562 c 0.433639,0 0.7966843,-0.13747 1.0583333,-0.28164 v 1.34049 c 0,0.59088 -0.467447,1.05833 -1.0583333,1.05833 h -2.521291 c 0.2521903,-0.28124 0.4061778,-0.65218 0.4061778,-1.05833 v -1.72703 c 0.3244268,-0.29064 0.5291667,-0.71453 0.5291667,-1.18339 v -0.79479 c 0,-0.40618 -0.1539637,-0.7776 -0.4061778,-1.05885 z m 7.5488936,0 h 1.058333 c 0.444318,0 0.794785,0.35098 0.794785,0.7953 v 2.11512 c 0,0.44432 -0.350467,0.79479 -0.794785,0.79479 h -1.058333 v -0.52917 h 0.529167 c 0.435245,0 0.794787,-0.358 0.794784,-0.79323 v -1.05834 c 3e-6,-0.43525 -0.359539,-0.79478 -0.794784,-0.79478 h -0.529167 z m -11.9062505,5.3e-4 h 3.175516 c 0.5909072,0 1.058852,0.46744 1.058852,1.05834 v 0.79478 c 0,0.35047 -0.1664229,0.65536 -0.4237488,0.84801 a 0.2645835,0.2645835 0 0 0 -0.1018011,0.25942 h -0.00413 v 1.80299 c 0,0.59088 -0.4674473,1.05833 -1.0583333,1.05833 H 3.6149451 c -0.590886,0 -1.0588493,-0.46745 -1.0588493,-1.05833 v -1.82625 H 2.5555667 A 0.2645835,0.2645835 0 0 0 2.450662,284.17921 C 2.1933362,283.98656 2.0269159,283.68167 2.0269159,283.3312 v -0.79478 c 0,-0.5909 0.4679448,-1.05834 1.0588493,-1.05834 z m 0,0.52917 a 0.2645835,0.2645835 0 0 0 -0.2640674,0.26562 0.2645835,0.2645835 0 0 0 0.2640674,0.26355 h 0.2656179 a 0.2645835,0.2645835 0 0 0 0.2635488,-0.26355 0.2645835,0.2645835 0 0 0 -0.2635488,-0.26562 z m 11.9062505,0.52917 h 0.529167 c 0.149259,0 0.265618,0.11636 0.265618,0.26561 v 1.05834 c 0,0.14926 -0.116359,0.26407 -0.265618,0.26407 h -0.529167 z m -11.3770838,0.26561 a 0.2645835,0.2645835 0 0 0 -0.2635488,0.26355 0.2645835,0.2645835 0 0 0 0.2635488,0.26562 h 0.2656179 a 0.2645835,0.2645835 0 0 0 0.2635488,-0.26562 0.2645835,0.2645835 0 0 0 -0.2635488,-0.26355 z m 10.0546828,1.05834 a 0.2645835,0.2645835 0 0 0 -0.265615,0.26407 v 2.11718 a 0.2645835,0.2645835 0 0 0 0.265615,0.26355 0.2645835,0.2645835 0 0 0 0.263552,-0.26355 v -2.11718 a 0.2645835,0.2645835 0 0 0 -0.263552,-0.26407 z m -5.0275993,1.58595 a 0.2645835,0.2645835 0 0 0 -0.2635489,0.26562 0.2645835,0.2645835 0 0 0 0.2635489,0.26406 h 0.2656178 a 0.2645835,0.2645835 0 0 0 0.2640648,-0.26406 0.2645835,0.2645835 0 0 0 -0.2640648,-0.26562 z m 0.6624928,0.7953 a 0.2645835,0.2645835 0 0 0 -0.2656178,0.26355 0.2645835,0.2645835 0 0 0 0.2656178,0.26561 h 0.2635488 a 0.2645835,0.2645835 0 0 0 0.2656184,-0.26561 0.2645835,0.2645835 0 0 0 -0.2656184,-0.26355 z m -7.2775923,0.52916 h 0.090951 c 0.2186491,0.6159 0.8075798,1.05834 1.4970655,1.05834 h 2.1171827 3.7031348 4.2343658 c 0.637284,0 1.171888,-0.45636 1.29553,-1.05834 h 1.350821 c 0.148867,0 0.243249,0.0369 0.3421,0.18139 0.09885,0.14442 0.187068,0.42472 0.187068,0.87695 0,0.45223 -0.08822,0.73098 -0.187068,0.8754 -0.09885,0.14442 -0.193233,0.18138 -0.3421,0.18138 H 2.0269212 c -0.1488652,0 -0.2427314,-0.0369 -0.3415824,-0.18138 -0.098848,-0.14442 -0.1875843,-0.42317 -0.1875843,-0.8754 0,-0.45223 0.088736,-0.73253 0.1875843,-0.87695 0.098851,-0.14443 0.1927172,-0.18139 0.3415824,-0.18139 z m 0.5291667,2.64429 H 15.521188 v 0.26562 c 0,0.15114 -0.112395,0.26406 -0.263549,0.26406 H 2.8217031 c -0.1511538,0 -0.2656152,-0.11292 -0.2656152,-0.26406 z" />
    </g>
  </g>
</svg>
