<?xml version="1.0" ?><svg data-name="Layer 1" id="Layer_1" viewBox="0 0 64 64" xmlns="http://www.w3.org/2000/svg"><defs><style>.cls-1{fill:#aed580;}.cls-2{fill:#9ccc65;}.cls-3{fill:#378e43;}.cls-4{fill:#42a047;}.cls-5{fill:#6d4d42;}.cls-6{fill:#5e4137;}</style></defs><path class="cls-1" d="M58.02,42.39a13.1731,13.1731,0,0,1-25.22.49A14.9313,14.9313,0,0,0,33.45,33a13.1537,13.1537,0,0,1,5.07-5.52,6.2919,6.2919,0,0,0,2.9-3.98c.03-.14.07-.27.11-.41a7.9087,7.9087,0,0,1,10-5.4,8.0154,8.0154,0,0,1,5.21,9.83,1.1764,1.1764,0,0,1-.07.2,6.6889,6.6889,0,0,0,.43,5.13A13.1371,13.1371,0,0,1,58.02,42.39Z"/><path class="cls-2" d="M58.02,42.39a13.2005,13.2005,0,0,1-16.91,8.92L51.53,17.69a8.0154,8.0154,0,0,1,5.21,9.83,1.1764,1.1764,0,0,1-.07.2,6.6889,6.6889,0,0,0,.43,5.13A13.1371,13.1371,0,0,1,58.02,42.39Z"/><path class="cls-3" d="M60,12.76l-.58,2.04a4.9231,4.9231,0,0,1-6.08,3.4l-2.03-.58.57-2.03a4.9275,4.9275,0,0,1,6.08-3.4Z"/><path class="cls-4" d="M60,12.76l-.58,2.04a4.9231,4.9231,0,0,1-6.08,3.4l-2.03-.58Z"/><path class="cls-5" d="M52,38.5A6.5,6.5,0,0,1,45.5,45a6.2693,6.2693,0,0,1-2.3-.43A6.4944,6.4944,0,0,1,45.5,32a6.0172,6.0172,0,0,1,1.54.19A6.49,6.49,0,0,1,52,38.5Z"/><path class="cls-6" d="M52,38.5A6.5,6.5,0,0,1,45.5,45a6.2693,6.2693,0,0,1-2.3-.43l3.84-12.38A6.49,6.49,0,0,1,52,38.5Z"/><path class="cls-4" d="M34,37A15.0055,15.0055,0,0,1,19,52c-.24,0-.48-.01-.72-.02A14.9942,14.9942,0,0,1,8.07,26.73a7.07,7.07,0,0,0,1.94-5.24C10,21.33,10,21.16,10,21a9.0007,9.0007,0,0,1,9-9h.27A9.109,9.109,0,0,1,28,21.14a1.9269,1.9269,0,0,1-.01.24,7.6312,7.6312,0,0,0,2.06,5.48A14.9514,14.9514,0,0,1,34,37Z"/><path class="cls-3" d="M34,37A15.0055,15.0055,0,0,1,19,52V12h.27A9.109,9.109,0,0,1,28,21.14a1.9269,1.9269,0,0,1-.01.24,7.6312,7.6312,0,0,0,2.06,5.48A14.9514,14.9514,0,0,1,34,37Z"/><path d="M45.5,46A7.5083,7.5083,0,0,0,53,38.5c-.3519-9.9264-14.65-9.9238-15,0A7.5082,7.5082,0,0,0,45.5,46Zm0-13c7.2685.2314,7.2668,10.77,0,11C38.2315,43.7686,38.2332,33.23,45.5,33Z"/><path d="M3.002,37.2578C3.51,53.21,24.3831,58.9719,32.7185,45.2167c5.7579,11.4957,22.8145,9.7813,26.262-2.5548A14.1551,14.1551,0,0,0,57.9927,32.4a5.6924,5.6924,0,0,1-.37-4.3643,9.0258,9.0258,0,0,0-1.9046-8.7515,5.91,5.91,0,0,0,4.6678-4.2133c.1632-.8059.8643-2.303.4869-2.7949-.2132-.5744-1.8474-.7641-2.6363-1.0509-3.739-1.0372-7.0113,1.5358-7.6374,5.2237a8.9485,8.9485,0,0,0-10.1535,6.8341,5.2857,5.2857,0,0,1-2.44,3.3378,14.12,14.12,0,0,0-4.3308,4.0408c-1.1093-3.2934-4.998-5.4917-4.6839-9.238a10.159,10.159,0,0,0-9.6953-10.42A10.0448,10.0448,0,0,0,9,21a6.37,6.37,0,0,1-1.6579,5.0458A15.9153,15.9153,0,0,0,3.002,37.2578ZM52.8457,15.8584A3.9427,3.9427,0,0,1,57.6919,13.15l1.0737.3036a4.7277,4.7277,0,0,1-2.1666,3.4316,4.7209,4.7209,0,0,1-4.0575.0469ZM34.5146,33.1143a12.1258,12.1258,0,0,1,4.52-4.7784,7.2967,7.2967,0,0,0,3.3628-4.6132,6.88,6.88,0,0,1,3.4643-4.57c5.2973-2.9786,11.67,2.3181,9.9174,8.08a7.712,7.712,0,0,0,.4283,6.07,12.1823,12.1823,0,1,1-22.34,9.6045A16.0622,16.0622,0,0,0,34.5146,33.1143ZM11.0117,21.4365a8.0414,8.0414,0,0,1,8.2267-8.4325,8.1252,8.1252,0,0,1,7.7548,8.3349V21.34a8.5832,8.5832,0,0,0,2.3159,6.1934,13.9541,13.9541,0,0,1,3.1768,5.7193,14.1553,14.1553,0,0,1-.6214,9.2933C25.7078,56.2977,5.5684,52.2032,5.002,37.2264A13.92,13.92,0,0,1,8.7993,27.417,8.1435,8.1435,0,0,0,11.0117,21.4365Z"/><path d="M18.9873,17A4.06,4.06,0,0,1,23,21.05a1.0085,1.0085,0,1,0,2,.0449,6.1,6.1,0,0,0-5.8354-6.0927A1.0045,1.0045,0,1,0,18.9873,17Z"/><path d="M18.4214,48.9863a1,1,0,0,0,.0927-1.998,10.1277,10.1277,0,0,1-9.5126-9.8252.9886.9886,0,0,0-1.0157-.9844,1,1,0,0,0-.9843,1.0156A12.1573,12.1573,0,0,0,18.4214,48.9863Z"/><path d="M50.0312,22.458a3.0433,3.0433,0,0,1,1.9214,3.61,1.006,1.006,0,1,0,1.9112.59,5.0662,5.0662,0,0,0-3.232-6.1084A1,1,0,0,0,50.0312,22.458Z"/></svg>