<?xml version="1.0" ?><svg data-name="Layer 1" id="Layer_1" viewBox="0 0 64 64" xmlns="http://www.w3.org/2000/svg"><defs><style>.cls-1{fill:#fdd837;}.cls-2{fill:#f9bf2c;}.cls-3{fill:#fef8c5;}.cls-4{fill:#fff278;}.cls-5{fill:#fef59f;}.cls-6{fill:#feed58;}</style></defs><path class="cls-1" d="M60,35a17,17,0,0,1-34,0Z"/><path class="cls-2" d="M60,35A16.9985,16.9985,0,0,1,43,52V35Z"/><path class="cls-3" d="M56,35a13,13,0,1,1-26,0Z"/><path class="cls-4" d="M56,35A12.9985,12.9985,0,0,1,43,48V35Z"/><path class="cls-5" d="M48.81,46.63a13.0047,13.0047,0,0,1-11.62,0L43,35Z"/><path class="cls-6" d="M48.81,46.63A12.8816,12.8816,0,0,1,43,48V35Z"/><path class="cls-1" d="M26,35a16.9391,16.9391,0,0,0,6.08,13.02c-5.62,3.97-11.75,5.32-17.06,2.42a4.0466,4.0466,0,0,0-3.26-.29l-1.32.47a3.9709,3.9709,0,0,1-5.06-5.06l.47-1.32a4.0466,4.0466,0,0,0-.29-3.26c-3.66-6.7-.57-14.72,6.06-21.36,6.64-6.63,14.66-9.72,21.36-6.06a4.0466,4.0466,0,0,0,3.26.29l1.32-.47a3.9709,3.9709,0,0,1,5.06,5.06l-.47,1.32a4.0466,4.0466,0,0,0,.29,3.26c2.04,3.74,1.98,7.89.38,11.98Z"/><path class="cls-2" d="M26,35a16.9391,16.9391,0,0,0,6.08,13.02c-5.62,3.97-11.75,5.32-17.06,2.42a4.0466,4.0466,0,0,0-3.26-.29l-1.32.47a3.9571,3.9571,0,0,1-4.12-.94L41.68,14.32a3.9571,3.9571,0,0,1,.94,4.12l-.47,1.32a4.0466,4.0466,0,0,0,.29,3.26c2.04,3.74,1.98,7.89.38,11.98Z"/><path d="M60,34H44.2109a14.4449,14.4449,0,0,0-.89-11.4629,3.0234,3.0234,0,0,1-.2236-2.4458l.4638-1.314a4.9682,4.9682,0,0,0-6.3388-6.3383c-1.194.4646-2.537.9833-3.76.24C19.8661,4.4942-3.5062,27.8672,4.6789,41.4621c.7426,1.2018.22,2.5909-.24,3.7606a4.9683,4.9683,0,0,0,6.3389,6.3383l1.3135-.4638a3.031,3.031,0,0,1,2.4463.2241c5.8292,3.0429,11.6747,1.7422,17.5011-2.0767C43.55,58.372,61.1338,49.798,61,35A1,1,0,0,0,60,34ZM49.2283,45.2306,44.6172,36H54.959A11.9,11.9,0,0,1,49.2283,45.2306Zm-2.3563,1.117a11.9505,11.9505,0,0,1-8.3146-.2174L43,37.2378,47.4426,46.13A5.0168,5.0168,0,0,1,46.872,46.3476ZM31.041,36H41.3828l-4.6111,9.2307A11.9,11.9,0,0,1,31.041,36Zm-.582,11.9043c-5.3535,3.4253-10.63,4.0225-14.9649,1.6611a5.1227,5.1227,0,0,0-2.4492-.6294,8.8072,8.8072,0,0,0-2.9336.7394,2.9675,2.9675,0,0,1-3.7861-3.7867l.4639-1.314a5.03,5.03,0,0,0-.3545-4.0693C-.7173,28.5608,20.5616,7.2826,32.506,14.4347a5.0182,5.0182,0,0,0,4.0692.3539l1.3135-.4639a2.9674,2.9674,0,0,1,3.7861,3.7866l-.4639,1.314a5.029,5.029,0,0,0,.3545,4.0688A12.5031,12.5031,0,0,1,42.12,34c-2.9309-.0009-13.3939.0006-16.12,0-1.7693.0856-.75,3.2319-.6738,4.3617A18.06,18.06,0,0,0,30.459,47.9043ZM43,51A16.0966,16.0966,0,0,1,27.0312,36h2.0039c.4831,9.7368,11.561,16.0609,20.2217,11.5244l.0012-.0007A13.9178,13.9178,0,0,0,56.9649,36h2.0039A16.02,16.02,0,0,1,43,51Z"/><path d="M38.8408,30.8228a1,1,0,1,0,1.9688.3544,10.0062,10.0062,0,0,0-1.001-6.7265,1,1,0,0,0-1.7559.957A8.056,8.056,0,0,1,38.8408,30.8228Z"/><path d="M13.7432,21.7437c-2.3164,2.3168-9.5606,10.4482-5.5518,17.8056a1,1,0,1,0,1.7558-.957c-3.3447-6.1387,3.1426-13.3657,5.21-15.4346A1,1,0,0,0,13.7432,21.7437Z"/></svg>