<?xml version="1.0" encoding="UTF-8" standalone="no"?>
<!-- Created with Inkscape (http://www.inkscape.org/) -->

<svg
   width="64pt"
   height="64pt"
   viewBox="0 0 22.577778 22.577778"
   version="1.1"
   id="svg831"
   inkscape:version="1.1.1 (3bf5ae0d25, 2021-09-20)"
   sodipodi:docname="Ex.svg"
   inkscape:export-filename="C:\Users\User\Desktop\CARLOS PROJECT\4. APRIL 1\Done\2 - Cabbage.png"
   inkscape:export-xdpi="576"
   inkscape:export-ydpi="576"
   xmlns:inkscape="http://www.inkscape.org/namespaces/inkscape"
   xmlns:sodipodi="http://sodipodi.sourceforge.net/DTD/sodipodi-0.dtd"
   xmlns="http://www.w3.org/2000/svg"
   xmlns:svg="http://www.w3.org/2000/svg"
   xmlns:rdf="http://www.w3.org/1999/02/22-rdf-syntax-ns#"
   xmlns:cc="http://creativecommons.org/ns#"
   xmlns:dc="http://purl.org/dc/elements/1.1/">
  <defs
     id="defs825">
    <pattern
       id="EMFhbasepattern"
       patternUnits="userSpaceOnUse"
       width="6"
       height="6"
       x="0"
       y="0" />
    <pattern
       id="EMFhbasepattern-9"
       patternUnits="userSpaceOnUse"
       width="6"
       height="6"
       x="0"
       y="0" />
    <pattern
       id="EMFhbasepattern-0"
       patternUnits="userSpaceOnUse"
       width="6"
       height="6"
       x="0"
       y="0" />
    <pattern
       id="EMFhbasepattern-7"
       patternUnits="userSpaceOnUse"
       width="6"
       height="6"
       x="0"
       y="0" />
    <pattern
       id="EMFhbasepattern-2"
       patternUnits="userSpaceOnUse"
       width="6"
       height="6"
       x="0"
       y="0" />
    <pattern
       id="EMFhbasepattern-98"
       patternUnits="userSpaceOnUse"
       width="6"
       height="6"
       x="0"
       y="0" />
    <pattern
       id="EMFhbasepattern-6"
       patternUnits="userSpaceOnUse"
       width="6"
       height="6"
       x="0"
       y="0" />
    <pattern
       id="EMFhbasepattern-01"
       patternUnits="userSpaceOnUse"
       width="6"
       height="6"
       x="0"
       y="0" />
    <pattern
       id="EMFhbasepattern-07"
       patternUnits="userSpaceOnUse"
       width="6"
       height="6"
       x="0"
       y="0" />
    <pattern
       id="EMFhbasepattern-8"
       patternUnits="userSpaceOnUse"
       width="6"
       height="6"
       x="0"
       y="0" />
    <pattern
       id="EMFhbasepattern-4"
       patternUnits="userSpaceOnUse"
       width="6"
       height="6"
       x="0"
       y="0" />
    <pattern
       id="EMFhbasepattern-40"
       patternUnits="userSpaceOnUse"
       width="6"
       height="6"
       x="0"
       y="0" />
    <pattern
       id="EMFhbasepattern-08"
       patternUnits="userSpaceOnUse"
       width="6"
       height="6"
       x="0"
       y="0" />
    <pattern
       id="EMFhbasepattern-04"
       patternUnits="userSpaceOnUse"
       width="6"
       height="6"
       x="0"
       y="0" />
    <pattern
       id="EMFhbasepattern-014"
       patternUnits="userSpaceOnUse"
       width="6"
       height="6"
       x="0"
       y="0" />
    <pattern
       id="EMFhbasepattern-27"
       patternUnits="userSpaceOnUse"
       width="6"
       height="6"
       x="0"
       y="0" />
    <pattern
       id="EMFhbasepattern-09"
       patternUnits="userSpaceOnUse"
       width="6"
       height="6"
       x="0"
       y="0" />
    <pattern
       id="EMFhbasepattern-5"
       patternUnits="userSpaceOnUse"
       width="6"
       height="6"
       x="0"
       y="0" />
    <pattern
       id="EMFhbasepattern-018"
       patternUnits="userSpaceOnUse"
       width="6"
       height="6"
       x="0"
       y="0" />
  </defs>
  <sodipodi:namedview
     id="base"
     pagecolor="#ffffff"
     bordercolor="#666666"
     borderopacity="1.0"
     inkscape:pageopacity="0.0"
     inkscape:pageshadow="2"
     inkscape:zoom="6.4882571"
     inkscape:cx="17.261955"
     inkscape:cy="42.615451"
     inkscape:document-units="pt"
     inkscape:current-layer="layer1"
     showgrid="false"
     units="pt"
     inkscape:window-width="1920"
     inkscape:window-height="1001"
     inkscape:window-x="-9"
     inkscape:window-y="-9"
     inkscape:window-maximized="1"
     inkscape:pagecheckerboard="true"
     inkscape:showpageshadow="false"
     inkscape:object-paths="true"
     inkscape:snap-intersection-paths="true"
     inkscape:snap-smooth-nodes="true"
     inkscape:snap-midpoints="true"
     showguides="true"
     inkscape:snap-bbox="true"
     inkscape:bbox-nodes="true"
     inkscape:snap-nodes="false"
     inkscape:snap-global="true"
     inkscape:lockguides="true">
    <inkscape:grid
       type="xygrid"
       id="grid1378" />
    <sodipodi:guide
       position="0.97013831,21.607643"
       orientation="78.000048,0"
       id="guide1380"
       inkscape:locked="true" />
    <sodipodi:guide
       position="0.97013831,0.97013129"
       orientation="0,78.000005"
       id="guide1382"
       inkscape:locked="true" />
    <sodipodi:guide
       position="21.607639,0.97013129"
       orientation="-78.000048,0"
       id="guide1384"
       inkscape:locked="true" />
    <sodipodi:guide
       position="21.607639,21.607643"
       orientation="0,-78.000005"
       id="guide1386"
       inkscape:locked="true" />
  </sodipodi:namedview>
  <metadata
     id="metadata828">
    <rdf:RDF>
      <cc:Work
         rdf:about="">
        <dc:format>image/svg+xml</dc:format>
        <dc:type
           rdf:resource="http://purl.org/dc/dcmitype/StillImage" />
      </cc:Work>
    </rdf:RDF>
  </metadata>
  <g
     inkscape:label="Icon"
     inkscape:groupmode="layer"
     id="layer1"
     transform="translate(0,-274.42223)">
    <g
       id="g3748"
       style="display:inline;stroke-width:0.786529"
       transform="matrix(1.2714096,0,0,1.2714096,0.52467939,-42.350926)">
      <g
         id="g1364"
         style="display:inline;stroke-width:0.786529">
        <path
           sodipodi:nodetypes="ccssscccccccccccccc"
           id="path2101"
           d="m 4.715094,257.62506 c 0.2280749,-1.01983 0.513512,-1.52401 -0.5163659,-2.00599 -0.3096543,-0.29424 -0.62268,-0.41987 -0.9151893,-0.41987 h -9.7e-6 c -0.097768,0 -0.1934801,0.0215 -0.2831869,0.0563 -0.2999928,0.11647 -0.5219939,0.38049 -0.6242514,0.709 -0.7212642,-0.17659 -1.63119909,0.1094 -1.42111039,0.81776 -0.34871158,0.13604 -0.58299034,0.42806 -0.60461421,0.75861 0.0264882,0.35218 0.15662665,0.51914 0.37982182,0.7116 -0.2211705,0.19505 -0.36320863,0.44053 -0.3545004,0.72037 0,0.33181 0.33307432,0.54864 0.67902828,0.65009 -0.0734049,0.39113 0.1405366,0.72745 0.4966195,0.76377 -0.1645949,0.23661 -0.2441554,0.50393 -0.1617472,0.74621 0.1867787,0.49378 0.6071987,0.57285 1.0557497,0.50489 0.1701056,0.29822 0.4847067,0.4625 0.7875487,0.43822 0.3448475,-0.0276 0.6225587,-0.32946 0.7053833,-0.73639 0.5355336,-0.0687 0.7271434,-0.71095 0.7295355,-1.1974 0.933874,-1.0996 0.04729,-2.51718 0.04729,-2.51718 z"
           style="color:#000000;font-style:normal;font-variant:normal;font-weight:normal;font-stretch:normal;font-size:medium;line-height:normal;font-family:sans-serif;font-variant-ligatures:normal;font-variant-position:normal;font-variant-caps:normal;font-variant-numeric:normal;font-variant-alternates:normal;font-variant-east-asian:normal;font-feature-settings:normal;font-variation-settings:normal;text-indent:0;text-align:start;text-decoration:none;text-decoration-line:none;text-decoration-style:solid;text-decoration-color:#000000;letter-spacing:normal;word-spacing:normal;text-transform:none;writing-mode:lr-tb;direction:ltr;text-orientation:mixed;dominant-baseline:auto;baseline-shift:baseline;text-anchor:start;white-space:normal;shape-padding:0;shape-margin:0;inline-size:0;clip-rule:nonzero;display:inline;overflow:visible;visibility:visible;isolation:auto;mix-blend-mode:normal;color-interpolation:sRGB;color-interpolation-filters:linearRGB;solid-color:#000000;solid-opacity:1;vector-effect:none;fill:#87e59d;fill-opacity:1;fill-rule:nonzero;stroke:none;stroke-width:0.416205;stroke-linecap:round;stroke-linejoin:round;stroke-miterlimit:4;stroke-dasharray:none;stroke-dashoffset:0;stroke-opacity:1;color-rendering:auto;image-rendering:auto;shape-rendering:auto;text-rendering:auto;enable-background:accumulate;stop-color:#000000" />
        <path
           sodipodi:nodetypes="scscccccccccccscss"
           id="path1870"
           d="m 8.9074669,256.32651 c 1.4339481,0.0221 3.0485471,0.0244 3.8653971,-0.0687 0.857621,-0.0977 1.305047,-0.59439 1.476396,-1.04852 0.167161,-0.44302 0.112269,-0.83383 0.109554,-0.85369 -0.01144,-0.57456 -0.320699,-0.89316 -0.740008,-1.1692 -0.409291,-0.23011 -0.747066,-0.20961 -1.139466,-0.0858 -0.03998,-0.43661 -0.14684,-0.91035 -0.651121,-1.06247 -0.346542,-0.13183 -0.731829,-0.0366 -1.108976,0.22634 -0.03728,-0.38699 -0.395627,-0.7178 -0.7270913,-0.74414 -0.3723464,-0.0212 -0.7570238,0.17522 -1.0340453,0.53744 -0.3306634,-0.56214 -0.8592075,-0.67595 -1.4252364,-0.53897 -0.5432401,0.1894 -0.9905603,0.74915 -0.9503294,1.45159 -0.3773043,-0.10864 -0.6722523,-0.10986 -0.9541959,0.0963 -0.4398878,0.33084 -0.6663957,0.93929 -0.4927346,1.59835 0.013576,0.67986 0.2939071,1.11636 0.5769674,1.36271 0.2859429,0.24886 0.4927274,0.22814 0.4927274,0.22814 0,0 1.2682128,0.0484 2.7021607,0.0705 z"
           style="color:#000000;font-style:normal;font-variant:normal;font-weight:normal;font-stretch:normal;font-size:medium;line-height:normal;font-family:sans-serif;font-variant-ligatures:normal;font-variant-position:normal;font-variant-caps:normal;font-variant-numeric:normal;font-variant-alternates:normal;font-variant-east-asian:normal;font-feature-settings:normal;font-variation-settings:normal;text-indent:0;text-align:start;text-decoration:none;text-decoration-line:none;text-decoration-style:solid;text-decoration-color:#000000;letter-spacing:normal;word-spacing:normal;text-transform:none;writing-mode:lr-tb;direction:ltr;text-orientation:mixed;dominant-baseline:auto;baseline-shift:baseline;text-anchor:start;white-space:normal;shape-padding:0;shape-margin:0;inline-size:0;clip-rule:nonzero;display:inline;overflow:visible;visibility:visible;isolation:auto;mix-blend-mode:normal;color-interpolation:sRGB;color-interpolation-filters:linearRGB;solid-color:#000000;solid-opacity:1;vector-effect:none;fill:#87e59d;fill-opacity:1;fill-rule:nonzero;stroke:none;stroke-width:0.416205;stroke-linecap:round;stroke-linejoin:round;stroke-miterlimit:4;stroke-dasharray:none;stroke-dashoffset:0;stroke-opacity:1;color-rendering:auto;image-rendering:auto;shape-rendering:auto;text-rendering:auto;enable-background:accumulate;stop-color:#000000" />
        <path
           sodipodi:nodetypes="cccscsccscc"
           transform="matrix(0.26458334,0,0,0.26458334,0,280.06666)"
           d="m 24.130859,-98.203125 c -2.029211,-1.261267 -3.332938,-1.302682 -5.341838,-0.613281 -0.09579,0.763946 -0.05935,1.577516 0.16211,2.417968 0.05131,2.56955 1.111806,4.219305 2.18164,5.150391 1.08073,0.940573 2.320313,1.253906 2.320313,1.253906 0,0 4.793245,0.184051 10.212891,0.267579 0.0032,4.9e-5 0.0066,-5e-5 0.0098,0 0.26105,-1.174534 0.270622,-2.380064 -0.0078,-3.53711 0.225146,-1.440605 -0.09315,-2.842584 -0.871094,-3.808594 -0.875727,-1.087407 -2.081957,-1.797357 -3.380859,-2.148437 -1.9151,-0.437989 -3.822207,-0.251209 -5.285163,1.017578 z"
           style="color:#000000;font-style:normal;font-variant:normal;font-weight:normal;font-stretch:normal;font-size:medium;line-height:normal;font-family:sans-serif;font-variant-ligatures:normal;font-variant-position:normal;font-variant-caps:normal;font-variant-numeric:normal;font-variant-alternates:normal;font-variant-east-asian:normal;font-feature-settings:normal;font-variation-settings:normal;text-indent:0;text-align:start;text-decoration:none;text-decoration-line:none;text-decoration-style:solid;text-decoration-color:#000000;letter-spacing:normal;word-spacing:normal;text-transform:none;writing-mode:lr-tb;direction:ltr;text-orientation:mixed;dominant-baseline:auto;baseline-shift:baseline;text-anchor:start;white-space:normal;shape-padding:0;shape-margin:0;inline-size:0;clip-rule:nonzero;display:inline;overflow:visible;visibility:visible;isolation:auto;mix-blend-mode:normal;color-interpolation:sRGB;color-interpolation-filters:linearRGB;solid-color:#000000;solid-opacity:1;vector-effect:none;fill:#349951;fill-opacity:1;fill-rule:nonzero;stroke:none;stroke-width:1.57306;stroke-linecap:round;stroke-linejoin:round;stroke-miterlimit:4;stroke-dasharray:none;stroke-dashoffset:0;stroke-opacity:1;color-rendering:auto;image-rendering:auto;shape-rendering:auto;text-rendering:auto;enable-background:accumulate;stop-color:#000000"
           id="path2052" />
        <path
           transform="matrix(0.26458334,0,0,0.26458334,0,280.06666)"
           d="m 52.330078,-99.847656 c -1.843589,0.06085 -3.559687,1.081661 -4.857422,2.589844 -0.848636,-0.490886 -1.64486,-1.095598 -2.664062,-1.203126 -1.212337,-0.127748 -2.569857,0.147978 -3.669922,1.048829 -1.03253,0.845323 -1.631365,2.060823 -1.925781,3.388671 l -1.375,4.341797 c 4.13391,0.02062 8.1291,-0.04159 10.4375,-0.304687 3.241402,-0.36926 4.932459,-2.246494 5.580078,-3.962891 0.631789,-1.674406 0.424324,-3.151501 0.414062,-3.226562 -0.01812,-0.909957 -0.220195,-1.770456 -0.554687,-2.546875 -0.466476,-0.09663 -0.935698,-0.139853 -1.384766,-0.125 z"
           style="color:#000000;font-style:normal;font-variant:normal;font-weight:normal;font-stretch:normal;font-size:medium;line-height:normal;font-family:sans-serif;font-variant-ligatures:normal;font-variant-position:normal;font-variant-caps:normal;font-variant-numeric:normal;font-variant-alternates:normal;font-variant-east-asian:normal;font-feature-settings:normal;font-variation-settings:normal;text-indent:0;text-align:start;text-decoration:none;text-decoration-line:none;text-decoration-style:solid;text-decoration-color:#000000;letter-spacing:normal;word-spacing:normal;text-transform:none;writing-mode:lr-tb;direction:ltr;text-orientation:mixed;dominant-baseline:auto;baseline-shift:baseline;text-anchor:start;white-space:normal;shape-padding:0;shape-margin:0;inline-size:0;clip-rule:nonzero;display:inline;overflow:visible;visibility:visible;isolation:auto;mix-blend-mode:normal;color-interpolation:sRGB;color-interpolation-filters:linearRGB;solid-color:#000000;solid-opacity:1;vector-effect:none;fill:#349951;fill-opacity:1;fill-rule:nonzero;stroke:none;stroke-width:1.57306;stroke-linecap:round;stroke-linejoin:round;stroke-miterlimit:4;stroke-dasharray:none;stroke-dashoffset:0;stroke-opacity:1;color-rendering:auto;image-rendering:auto;shape-rendering:auto;text-rendering:auto;enable-background:accumulate;stop-color:#000000"
           id="path1950" />
        <path
           sodipodi:nodetypes="ccccccccccscscsccc"
           id="path1590"
           d="m 12.64548,255.04649 c -0.256448,-0.2112 -0.547072,-0.35953 -0.852144,-0.39171 -0.222931,-0.0235 -0.462869,0.0282 -0.650606,0.18191 -0.187738,0.1537 -0.310956,0.39103 -0.371037,0.69143 l -1.1547202,3.49331 0.6955652,1.47072 c 0.02559,0.0545 0.06897,0.0986 0.12299,0.12505 l 2.998266,1.47278 c 0.10322,0.0501 0.226975,0.028 0.306442,-0.0548 l 1.284918,-1.54822 c 0.682184,0.0929 1.205704,-0.30412 1.28726,-0.8077 0.06384,-0.39416 -0.157822,-0.81029 -0.60048,-1.03869 0.291962,-0.32517 0.385465,-0.72469 0.30179,-1.07487 -0.08163,-0.34166 -0.29988,-0.63591 -0.592728,-0.81908 0.225491,-0.32599 0.248103,-0.72239 0.0832,-1.03042 -0.176824,-0.3303 -0.408757,-0.49399 -0.837926,-0.54829 0.01347,-0.58929 -0.274433,-0.88854 -0.823968,-0.87798 -0.65653,0.01 -0.991385,0.36616 -1.196822,0.75656 z"
           style="color:#000000;font-style:normal;font-variant:normal;font-weight:normal;font-stretch:normal;font-size:medium;line-height:normal;font-family:sans-serif;font-variant-ligatures:normal;font-variant-position:normal;font-variant-caps:normal;font-variant-numeric:normal;font-variant-alternates:normal;font-variant-east-asian:normal;font-feature-settings:normal;font-variation-settings:normal;text-indent:0;text-align:start;text-decoration:none;text-decoration-line:none;text-decoration-style:solid;text-decoration-color:#000000;letter-spacing:normal;word-spacing:normal;text-transform:none;writing-mode:lr-tb;direction:ltr;text-orientation:mixed;dominant-baseline:auto;baseline-shift:baseline;text-anchor:start;white-space:normal;shape-padding:0;shape-margin:0;inline-size:0;clip-rule:nonzero;display:inline;overflow:visible;visibility:visible;isolation:auto;mix-blend-mode:normal;color-interpolation:sRGB;color-interpolation-filters:linearRGB;solid-color:#000000;solid-opacity:1;vector-effect:none;fill:#87e59d;fill-opacity:1;fill-rule:nonzero;stroke:none;stroke-width:0.416205;stroke-linecap:round;stroke-linejoin:round;stroke-miterlimit:4;stroke-dasharray:none;stroke-dashoffset:0;stroke-opacity:1;color-rendering:auto;image-rendering:auto;shape-rendering:auto;text-rendering:auto;enable-background:accumulate;stop-color:#000000" />
        <path
           sodipodi:nodetypes="cccccccc"
           d="m 11.121496,260.90751 2.312309,1.18246 c 0.103225,0.0501 0.22698,0.028 0.306442,-0.0548 l 1.544608,-1.58285 c 0.252884,0.0345 0.483665,5.9e-4 0.678512,-0.0801 -0.01263,-0.21812 -0.06774,-0.42854 -0.199471,-0.60874 -0.705761,-0.7501 -1.473148,-0.59359 -2.312521,-0.20101 z"
           style="color:#000000;font-style:normal;font-variant:normal;font-weight:normal;font-stretch:normal;font-size:medium;line-height:normal;font-family:sans-serif;font-variant-ligatures:normal;font-variant-position:normal;font-variant-caps:normal;font-variant-numeric:normal;font-variant-alternates:normal;font-variant-east-asian:normal;font-feature-settings:normal;font-variation-settings:normal;text-indent:0;text-align:start;text-decoration:none;text-decoration-line:none;text-decoration-style:solid;text-decoration-color:#000000;letter-spacing:normal;word-spacing:normal;text-transform:none;writing-mode:lr-tb;direction:ltr;text-orientation:mixed;dominant-baseline:auto;baseline-shift:baseline;text-anchor:start;white-space:normal;shape-padding:0;shape-margin:0;inline-size:0;clip-rule:nonzero;display:inline;overflow:visible;visibility:visible;isolation:auto;mix-blend-mode:normal;color-interpolation:sRGB;color-interpolation-filters:linearRGB;solid-color:#000000;solid-opacity:1;vector-effect:none;fill:#349951;fill-opacity:1;fill-rule:nonzero;stroke:none;stroke-width:0.416205;stroke-linecap:round;stroke-linejoin:round;stroke-miterlimit:4;stroke-dasharray:none;stroke-dashoffset:0;stroke-opacity:1;color-rendering:auto;image-rendering:auto;shape-rendering:auto;text-rendering:auto;enable-background:accumulate;stop-color:#000000"
           id="path1786" />
        <path
           sodipodi:nodetypes="ccccccccscccscc"
           transform="matrix(0.26458334,0,0,0.26458334,0,280.06666)"
           d="m 42.150391,-96.111328 c -0.691192,0.581535 -1.149476,1.464193 -1.373047,2.582031 -7.08e-4,0.0052 -0.0014,0.01041 -0.002,0.01563 -0.02536,0.04703 -0.04691,0.09601 -0.06445,0.146484 l -4.400391,13.080079 c -0.08446,0.244156 -0.07116,0.511524 0.03711,0.746093 l 0.814453,1.722657 c 0.227747,-0.04025 0.459873,-0.07127 0.677735,-0.134766 1.778997,-1.120797 4.740535,-2.880875 7.101071,-4.869545 1.97091,-1.660423 3.522846,-3.480205 3.617679,-5.220299 0.03439,-1.252535 -0.389411,-2.558368 -1.330078,-3.566406 -0.527902,-0.565644 -1.293274,-0.75247 -2.007813,-1.019531 -0.235427,-0.72892 -0.426776,-1.483879 -0.9375,-2.058594 -0.606494,-0.682468 -1.352383,-1.132635 -2.132812,-1.423828 z"
           style="color:#000000;font-style:normal;font-variant:normal;font-weight:normal;font-stretch:normal;font-size:medium;line-height:normal;font-family:sans-serif;font-variant-ligatures:normal;font-variant-position:normal;font-variant-caps:normal;font-variant-numeric:normal;font-variant-alternates:normal;font-variant-east-asian:normal;font-feature-settings:normal;font-variation-settings:normal;text-indent:0;text-align:start;text-decoration:none;text-decoration-line:none;text-decoration-style:solid;text-decoration-color:#000000;letter-spacing:normal;word-spacing:normal;text-transform:none;writing-mode:lr-tb;direction:ltr;text-orientation:mixed;dominant-baseline:auto;baseline-shift:baseline;text-anchor:start;white-space:normal;shape-padding:0;shape-margin:0;inline-size:0;clip-rule:nonzero;display:inline;overflow:visible;visibility:visible;isolation:auto;mix-blend-mode:normal;color-interpolation:sRGB;color-interpolation-filters:linearRGB;solid-color:#000000;solid-opacity:1;vector-effect:none;fill:#349951;fill-opacity:1;fill-rule:nonzero;stroke:none;stroke-width:1.57306;stroke-linecap:round;stroke-linejoin:round;stroke-miterlimit:4;stroke-dasharray:none;stroke-dashoffset:0;stroke-opacity:1;color-rendering:auto;image-rendering:auto;shape-rendering:auto;text-rendering:auto;enable-background:accumulate;stop-color:#000000"
           id="path1838" />
        <path
           sodipodi:nodetypes="cccscscccccscscsscccc"
           id="path1485"
           d="m 14.228073,259.92784 c -0.132874,-0.0123 -0.362101,-0.0237 -0.665593,0.0563 -0.370908,0.0978 -0.799088,0.378 -0.960148,0.91571 -0.533882,0.045 -0.888889,0.31744 -1.067119,0.61392 -0.168059,0.27956 -0.03099,0.43085 -0.03978,0.58419 -0.154477,0.25509 -0.25071,0.48754 -0.27957,0.71417 -0.0291,0.22853 0.02052,0.45804 0.152446,0.63097 0.219926,0.28829 0.572061,0.29825 1.026034,0.32969 0.01881,0.20046 0.09953,0.3797 0.220658,0.51212 0.160425,0.17537 0.379547,0.27179 0.605131,0.29249 0.343813,0.0315 0.51193,-0.11023 0.707955,-0.45993 0.259324,0.15924 0.526753,0.22131 0.772045,0.19017 0.348161,-0.0442 0.627489,-0.25621 0.802535,-0.51573 0.175047,-0.25951 0.259812,-0.57696 0.183969,-0.8847 -0.03827,-0.15528 -0.12721,-0.30023 -0.256315,-0.41548 0.262978,-0.19792 0.453633,-0.47256 0.537434,-0.76223 0.0688,-0.2378 -0.0621,-0.18003 -0.218859,-0.39763 -0.09787,-0.13586 -0.247266,-0.2296 -0.426331,-0.28835 0.126316,-0.31332 0.08902,-0.64739 -0.08371,-0.88367 -0.123569,-0.16902 -0.314719,-0.28936 -0.53692,-0.31237 -0.215555,-0.0222 -0.273349,-0.0839 -0.473863,0.0804 z"
           style="color:#000000;font-style:normal;font-variant:normal;font-weight:normal;font-stretch:normal;font-size:medium;line-height:normal;font-family:sans-serif;font-variant-ligatures:normal;font-variant-position:normal;font-variant-caps:normal;font-variant-numeric:normal;font-variant-alternates:normal;font-variant-east-asian:normal;font-feature-settings:normal;font-variation-settings:normal;text-indent:0;text-align:start;text-decoration:none;text-decoration-line:none;text-decoration-style:solid;text-decoration-color:#000000;letter-spacing:normal;word-spacing:normal;text-transform:none;writing-mode:lr-tb;direction:ltr;text-orientation:mixed;dominant-baseline:auto;baseline-shift:baseline;text-anchor:start;white-space:normal;shape-padding:0;shape-margin:0;inline-size:0;clip-rule:nonzero;display:inline;overflow:visible;visibility:visible;isolation:auto;mix-blend-mode:normal;color-interpolation:sRGB;color-interpolation-filters:linearRGB;solid-color:#000000;solid-opacity:1;vector-effect:none;fill:#87e59d;fill-opacity:1;fill-rule:nonzero;stroke:none;stroke-width:0.416205;stroke-linecap:round;stroke-linejoin:round;stroke-miterlimit:4;stroke-dasharray:none;stroke-dashoffset:0;stroke-opacity:1;color-rendering:auto;image-rendering:auto;shape-rendering:auto;text-rendering:auto;enable-background:accumulate;stop-color:#000000" />
        <path
           sodipodi:nodetypes="cccscccsccccc"
           transform="matrix(0.26458334,0,0,0.26458334,0,280.06666)"
           d="m 28.212904,-93.298836 c -0.675814,0.0892 -1.386925,0.01786 -1.970703,0.382812 -1.154353,0.721435 -1.860445,1.810786 -2.248047,2.939454 0.739864,0.02737 4.729098,0.173821 9.671875,0.25 5.397123,0.08318 11.46313,0.09157 14.5625,-0.25586 -0.219494,-0.58434 -0.546851,-1.14135 -1,-1.626953 -0.527902,-0.565644 -1.293274,-0.75247 -2.007813,-1.019531 -0.235427,-0.72892 -0.426776,-1.483879 -0.9375,-2.058594 -0.984559,-1.107893 -2.325587,-1.662801 -3.609375,-1.787109 -1.339994,-0.129638 -2.613852,0.262648 -3.808594,0.849609 -0.177335,-0.201449 -0.287442,-0.447426 -0.49414,-0.626953 -0.813147,-0.706205 -1.820176,-1.184772 -3.469727,-1.266602 -2.677571,0.343972 -3.983572,2.132294 -4.688476,4.219727 z"
           style="color:#000000;font-style:normal;font-variant:normal;font-weight:normal;font-stretch:normal;font-size:medium;line-height:normal;font-family:sans-serif;font-variant-ligatures:normal;font-variant-position:normal;font-variant-caps:normal;font-variant-numeric:normal;font-variant-alternates:normal;font-variant-east-asian:normal;font-feature-settings:normal;font-variation-settings:normal;text-indent:0;text-align:start;text-decoration:none;text-decoration-line:none;text-decoration-style:solid;text-decoration-color:#000000;letter-spacing:normal;word-spacing:normal;text-transform:none;writing-mode:lr-tb;direction:ltr;text-orientation:mixed;dominant-baseline:auto;baseline-shift:baseline;text-anchor:start;white-space:normal;shape-padding:0;shape-margin:0;inline-size:0;clip-rule:nonzero;display:inline;overflow:visible;visibility:visible;isolation:auto;mix-blend-mode:normal;color-interpolation:sRGB;color-interpolation-filters:linearRGB;solid-color:#000000;solid-opacity:1;vector-effect:none;fill:#349951;fill-opacity:1;fill-rule:nonzero;stroke:none;stroke-width:1.57306;stroke-linecap:round;stroke-linejoin:round;stroke-miterlimit:4;stroke-dasharray:none;stroke-dashoffset:0;stroke-opacity:1;color-rendering:auto;image-rendering:auto;shape-rendering:auto;text-rendering:auto;enable-background:accumulate;stop-color:#000000"
           id="path1945" />
        <path
           transform="matrix(0.26458334,0,0,0.26458334,0,280.06666)"
           d="m 12.546875,-94.917969 c -0.70096,0.799982 -1.206221,1.840964 -1.251953,3.048828 -0.03451,0.911207 0.541183,1.637947 0.996094,2.400391 -0.199113,0.738746 -0.436309,1.585429 -0.324219,2.759766 0.133716,1.400844 0.80315,2.94673 2.007812,4.378906 0.455491,1.083401 1.318192,2.782149 3.054688,4.140625 0.584682,0.457371 1.281861,0.82973 2.046875,1.103515 1.100474,-3.732029 -1.25586,-7.732421 -1.25586,-7.732421 0.862016,-3.854476 1.417843,-6.742797 -2.474609,-8.564453 -0.940443,-0.893629 -1.888906,-1.388976 -2.798828,-1.535157 z"
           style="color:#000000;font-style:normal;font-variant:normal;font-weight:normal;font-stretch:normal;font-size:medium;line-height:normal;font-family:sans-serif;font-variant-ligatures:normal;font-variant-position:normal;font-variant-caps:normal;font-variant-numeric:normal;font-variant-alternates:normal;font-variant-east-asian:normal;font-feature-settings:normal;font-variation-settings:normal;text-indent:0;text-align:start;text-decoration:none;text-decoration-line:none;text-decoration-style:solid;text-decoration-color:#000000;letter-spacing:normal;word-spacing:normal;text-transform:none;writing-mode:lr-tb;direction:ltr;text-orientation:mixed;dominant-baseline:auto;baseline-shift:baseline;text-anchor:start;white-space:normal;shape-padding:0;shape-margin:0;inline-size:0;clip-rule:nonzero;display:inline;overflow:visible;visibility:visible;isolation:auto;mix-blend-mode:normal;color-interpolation:sRGB;color-interpolation-filters:linearRGB;solid-color:#000000;solid-opacity:1;vector-effect:none;fill:#349951;fill-opacity:1;fill-rule:nonzero;stroke:none;stroke-width:1.57306;stroke-linecap:round;stroke-linejoin:round;stroke-miterlimit:4;stroke-dasharray:none;stroke-dashoffset:0;stroke-opacity:1;color-rendering:auto;image-rendering:auto;shape-rendering:auto;text-rendering:auto;enable-background:accumulate;stop-color:#000000"
           id="path2231" />
        <path
           sodipodi:nodetypes="cccccccccccscscc"
           id="path1973"
           d="m 4.795573,259.01006 c 0.3574358,0.27961 0.9005585,0.43539 1.539441,0.21136 0.3112254,0.0817 0.6496801,0.0461 0.9544637,-0.0729 0.3261403,-0.1272 0.6151973,-0.36539 0.7580933,-0.70487 0.2915526,-0.42534 0.2932094,-0.96861 0.091984,-1.47226 0.3491156,-0.42064 0.4334441,-1.01188 0.297398,-1.51696 0.1068256,-0.28588 0.022879,-0.57029 -0.1356505,-0.76714 -0.6281334,-0.59005 -1.3377219,-0.57939 -1.9249474,-0.005 -0.2187055,-0.29019 -0.5558504,-0.43592 -0.8676474,-0.41135 -0.4501425,0.0881 -0.6453602,0.28944 -0.7710123,0.66973 -0.3145813,-0.0792 -0.6936478,0.0166 -0.9208741,0.18606 -0.2000306,0.15338 -0.3489643,0.38104 -0.3591512,0.65009 -0.00795,0.20988 0.084197,0.42467 0.2573486,0.60099 -0.052497,0.16161 -0.1096788,0.4081 -0.081649,0.70177 0.029154,0.30543 0.1638358,0.65853 0.4842082,0.9971 0.1019985,0.24687 0.3027134,0.63943 0.6779951,0.93301 z"
           style="color:#000000;font-style:normal;font-variant:normal;font-weight:normal;font-stretch:normal;font-size:medium;line-height:normal;font-family:sans-serif;font-variant-ligatures:normal;font-variant-position:normal;font-variant-caps:normal;font-variant-numeric:normal;font-variant-alternates:normal;font-variant-east-asian:normal;font-feature-settings:normal;font-variation-settings:normal;text-indent:0;text-align:start;text-decoration:none;text-decoration-line:none;text-decoration-style:solid;text-decoration-color:#000000;letter-spacing:normal;word-spacing:normal;text-transform:none;writing-mode:lr-tb;direction:ltr;text-orientation:mixed;dominant-baseline:auto;baseline-shift:baseline;text-anchor:start;white-space:normal;shape-padding:0;shape-margin:0;inline-size:0;clip-rule:nonzero;display:inline;overflow:visible;visibility:visible;isolation:auto;mix-blend-mode:normal;color-interpolation:sRGB;color-interpolation-filters:linearRGB;solid-color:#000000;solid-opacity:1;vector-effect:none;fill:#87e59d;fill-opacity:1;fill-rule:nonzero;stroke:none;stroke-width:0.416205;stroke-linecap:round;stroke-linejoin:round;stroke-miterlimit:4;stroke-dasharray:none;stroke-dashoffset:0;stroke-opacity:1;color-rendering:auto;image-rendering:auto;shape-rendering:auto;text-rendering:auto;enable-background:accumulate;stop-color:#000000" />
        <path
           transform="matrix(0.26458334,0,0,0.26458334,0,280.06666)"
           d="m 30.496094,-96.71875 c -1.068436,0.780636 -1.813204,2.028112 -2.283203,3.419922 -0.675814,0.0892 -1.386925,0.01786 -1.970703,0.382812 -1.432846,0.895484 -2.200577,2.355911 -2.488282,3.757813 -0.286601,1.396573 -0.15764,2.951423 0.605469,4.347656 0.434929,0.79578 1.286622,1.293066 2.089844,1.808594 0.280048,1.436058 1.004032,2.679856 2.052734,3.457031 0.824796,-0.514515 1.519029,-1.241201 1.914063,-2.179687 1.101931,-1.607585 1.108193,-3.660894 0.347656,-5.564453 1.319492,-1.589821 1.63919,-3.825412 1.125,-5.734376 0.40375,-1.080491 0.0855,-2.154437 -0.513672,-2.898437 -0.248516,-0.30859 -0.550742,-0.567703 -0.878906,-0.796875 z"
           style="color:#000000;font-style:normal;font-variant:normal;font-weight:normal;font-stretch:normal;font-size:medium;line-height:normal;font-family:sans-serif;font-variant-ligatures:normal;font-variant-position:normal;font-variant-caps:normal;font-variant-numeric:normal;font-variant-alternates:normal;font-variant-east-asian:normal;font-feature-settings:normal;font-variation-settings:normal;text-indent:0;text-align:start;text-decoration:none;text-decoration-line:none;text-decoration-style:solid;text-decoration-color:#000000;letter-spacing:normal;word-spacing:normal;text-transform:none;writing-mode:lr-tb;direction:ltr;text-orientation:mixed;dominant-baseline:auto;baseline-shift:baseline;text-anchor:start;white-space:normal;shape-padding:0;shape-margin:0;inline-size:0;clip-rule:nonzero;display:inline;overflow:visible;visibility:visible;isolation:auto;mix-blend-mode:normal;color-interpolation:sRGB;color-interpolation-filters:linearRGB;solid-color:#000000;solid-opacity:1;vector-effect:none;fill:#349951;fill-opacity:1;fill-rule:nonzero;stroke:none;stroke-width:1.57306;stroke-linecap:round;stroke-linejoin:round;stroke-miterlimit:4;stroke-dasharray:none;stroke-dashoffset:0;stroke-opacity:1;color-rendering:auto;image-rendering:auto;shape-rendering:auto;text-rendering:auto;enable-background:accumulate;stop-color:#000000"
           id="path2047" />
        <path
           sodipodi:nodetypes="ccccccccssccccc"
           id="path1693"
           d="m 11.513509,257.69541 c 0.536687,-0.0751 0.871434,-0.50564 0.883151,-0.93586 -0.03644,-0.52808 -0.337344,-0.75792 -0.768946,-0.89245 -0.09926,-0.48201 -0.44819,-0.82656 -0.908988,-0.87695 -0.377331,-0.0365 -0.7704329,0.092 -1.0852053,0.34365 -0.2304415,-0.41985 -0.5740828,-0.61925 -1.0066568,-0.61925 -0.4302067,0.0659 -0.7410088,0.46408 -0.8480103,1.03921 -0.220763,-0.0328 -0.4307694,0.007 -0.5973797,0.11111 -0.2521222,0.15757 -0.3977174,0.42332 -0.4547526,0.70124 -0.057035,0.27791 -0.028992,0.57998 0.1152385,0.84388 0.1099849,0.20123 0.2975544,0.37309 0.541569,0.46716 0.010464,0.37718 0.2296735,0.67883 0.5053955,0.83147 0.2925387,0.16196 0.6318734,0.20821 0.9585979,0.2235 0.337499,0.17071 0.7095212,0.17119 1.037146,0.0757 0.5834548,-0.32607 1.2257748,-0.49027 1.6288408,-1.31241 z"
           style="color:#000000;font-style:normal;font-variant:normal;font-weight:normal;font-stretch:normal;font-size:medium;line-height:normal;font-family:sans-serif;font-variant-ligatures:normal;font-variant-position:normal;font-variant-caps:normal;font-variant-numeric:normal;font-variant-alternates:normal;font-variant-east-asian:normal;font-feature-settings:normal;font-variation-settings:normal;text-indent:0;text-align:start;text-decoration:none;text-decoration-line:none;text-decoration-style:solid;text-decoration-color:#000000;letter-spacing:normal;word-spacing:normal;text-transform:none;writing-mode:lr-tb;direction:ltr;text-orientation:mixed;dominant-baseline:auto;baseline-shift:baseline;text-anchor:start;white-space:normal;shape-padding:0;shape-margin:0;inline-size:0;clip-rule:nonzero;display:inline;overflow:visible;visibility:visible;isolation:auto;mix-blend-mode:normal;color-interpolation:sRGB;color-interpolation-filters:linearRGB;solid-color:#000000;solid-opacity:1;vector-effect:none;fill:#87e59d;fill-opacity:1;fill-rule:nonzero;stroke:none;stroke-width:0.416205;stroke-linecap:round;stroke-linejoin:round;stroke-miterlimit:4;stroke-dasharray:none;stroke-dashoffset:0;stroke-opacity:1;color-rendering:auto;image-rendering:auto;shape-rendering:auto;text-rendering:auto;enable-background:accumulate;stop-color:#000000" />
        <path
           id="path1937"
           d="m 5.1842448,256.76953 a 0.26460996,0.26460996 0 0 0 -0.2578125,0.26367 v 0.41992 L 4.498698,257.11523 a 0.26460996,0.26460996 0 0 0 -0.3554688,0.0274 l -0.8105469,0.85547 a 0.26460996,0.26460996 0 0 0 0.029297,0.39062 l 0.578125,0.45313 -0.9707031,0.13086 a 0.26460996,0.26460996 0 0 0 -0.2148438,0.3457 l 0.3515625,1.05664 a 0.26460996,0.26460996 0 0 0 0.2929688,0.17773 l 1.4550781,-0.24023 1.4082031,1.17383 a 0.26460996,0.26460996 0 0 0 0.3183594,0.0156 l 1.4648437,-1.00586 a 0.26460996,0.26460996 0 0 0 0.021484,-0.41992 l -1.5214841,-1.2969 0.027344,-0.92774 a 0.26460996,0.26460996 0 0 0 -0.109375,-0.22265 l -1.1171875,-0.8086 a 0.26460996,0.26460996 0 0 0 -0.1621094,-0.0508 z"
           style="color:#000000;font-style:normal;font-variant:normal;font-weight:normal;font-stretch:normal;font-size:medium;line-height:normal;font-family:sans-serif;font-variant-ligatures:normal;font-variant-position:normal;font-variant-caps:normal;font-variant-numeric:normal;font-variant-alternates:normal;font-variant-east-asian:normal;font-feature-settings:normal;font-variation-settings:normal;text-indent:0;text-align:start;text-decoration:none;text-decoration-line:none;text-decoration-style:solid;text-decoration-color:#000000;letter-spacing:normal;word-spacing:normal;text-transform:none;writing-mode:lr-tb;direction:ltr;text-orientation:mixed;dominant-baseline:auto;baseline-shift:baseline;text-anchor:start;white-space:normal;shape-padding:0;shape-margin:0;inline-size:0;clip-rule:nonzero;display:inline;overflow:visible;visibility:visible;isolation:auto;mix-blend-mode:normal;color-interpolation:sRGB;color-interpolation-filters:linearRGB;solid-color:#000000;solid-opacity:1;vector-effect:none;fill:#50b86b;fill-opacity:1;fill-rule:nonzero;stroke:none;stroke-width:0.416205;stroke-linecap:round;stroke-linejoin:round;stroke-miterlimit:4;stroke-dasharray:none;stroke-dashoffset:0;stroke-opacity:1;color-rendering:auto;image-rendering:auto;shape-rendering:auto;text-rendering:auto;enable-background:accumulate;stop-color:#000000" />
        <path
           transform="matrix(0.26458334,0,0,0.26458334,0,280.06666)"
           d="m 27.710938,-77.923828 -7.271485,5.007812 3.228516,2.691407 a 1.0001006,1.0001006 0 0 0 1.203125,0.05859 l 5.537109,-3.800781 a 1.0001006,1.0001006 0 0 0 0.08203,-1.587891 z"
           style="color:#000000;font-style:normal;font-variant:normal;font-weight:normal;font-stretch:normal;font-size:medium;line-height:normal;font-family:sans-serif;font-variant-ligatures:normal;font-variant-position:normal;font-variant-caps:normal;font-variant-numeric:normal;font-variant-alternates:normal;font-variant-east-asian:normal;font-feature-settings:normal;font-variation-settings:normal;text-indent:0;text-align:start;text-decoration:none;text-decoration-line:none;text-decoration-style:solid;text-decoration-color:#000000;letter-spacing:normal;word-spacing:normal;text-transform:none;writing-mode:lr-tb;direction:ltr;text-orientation:mixed;dominant-baseline:auto;baseline-shift:baseline;text-anchor:start;white-space:normal;shape-padding:0;shape-margin:0;inline-size:0;clip-rule:nonzero;display:inline;overflow:visible;visibility:visible;isolation:auto;mix-blend-mode:normal;color-interpolation:sRGB;color-interpolation-filters:linearRGB;solid-color:#000000;solid-opacity:1;vector-effect:none;fill:#349951;fill-opacity:1;fill-rule:nonzero;stroke:none;stroke-width:1.57306;stroke-linecap:round;stroke-linejoin:round;stroke-miterlimit:4;stroke-dasharray:none;stroke-dashoffset:0;stroke-opacity:1;color-rendering:auto;image-rendering:auto;shape-rendering:auto;text-rendering:auto;enable-background:accumulate;stop-color:#000000"
           id="path2059" />
        <path
           id="path1793"
           d="M 9.0820312,257.46484 A 0.26460996,0.26460996 0 0 0 8.8125,257.67969 l -0.3476562,1.88281 -3.3320313,2.29492 a 0.26460996,0.26460996 0 0 0 -0.041016,0.40039 l 1.6992187,1.78125 a 0.26460996,0.26460996 0 0 0 0.3417969,0.0352 l 2.8105469,-1.94922 3.03711,0.85352 a 0.26460996,0.26460996 0 0 0 0.328125,-0.18946 l 0.345703,-1.38476 a 0.26460996,0.26460996 0 0 0 -0.177735,-0.31641 l -1.552734,-0.47656 1.544922,-0.92578 a 0.26460996,0.26460996 0 0 0 0.0332,-0.43164 l -1.082031,-0.88672 a 0.26460996,0.26460996 0 0 0 -0.302734,-0.0234 l -1.757813,1.04297 0.208984,-1.58008 a 0.26460996,0.26460996 0 0 0 -0.253906,-0.29883 z"
           style="color:#000000;font-style:normal;font-variant:normal;font-weight:normal;font-stretch:normal;font-size:medium;line-height:normal;font-family:sans-serif;font-variant-ligatures:normal;font-variant-position:normal;font-variant-caps:normal;font-variant-numeric:normal;font-variant-alternates:normal;font-variant-east-asian:normal;font-feature-settings:normal;font-variation-settings:normal;text-indent:0;text-align:start;text-decoration:none;text-decoration-line:none;text-decoration-style:solid;text-decoration-color:#000000;letter-spacing:normal;word-spacing:normal;text-transform:none;writing-mode:lr-tb;direction:ltr;text-orientation:mixed;dominant-baseline:auto;baseline-shift:baseline;text-anchor:start;white-space:normal;shape-padding:0;shape-margin:0;inline-size:0;clip-rule:nonzero;display:inline;overflow:visible;visibility:visible;isolation:auto;mix-blend-mode:normal;color-interpolation:sRGB;color-interpolation-filters:linearRGB;solid-color:#000000;solid-opacity:1;vector-effect:none;fill:#50b86b;fill-opacity:1;fill-rule:nonzero;stroke:none;stroke-width:0.416205;stroke-linecap:round;stroke-linejoin:round;stroke-miterlimit:4;stroke-dasharray:none;stroke-dashoffset:0;stroke-opacity:1;color-rendering:auto;image-rendering:auto;shape-rendering:auto;text-rendering:auto;enable-background:accumulate;stop-color:#000000" />
        <path
           id="path1810"
           d="m 6.0507812,261.61914 c -0.3398729,-0.0549 -0.6965797,0.0226 -0.9511718,0.26563 -0.2545935,0.24299 -0.347635,0.59543 -0.3085938,0.9375 0.039041,0.34206 0.2024967,0.6856 0.4746094,0.9707 0.272108,0.28509 0.6093458,0.46459 0.9492188,0.51953 0.3398729,0.0549 0.6965797,-0.0207 0.9511718,-0.26367 0.2545935,-0.243 0.3456818,-0.59544 0.3066406,-0.9375 -0.039041,-0.34207 -0.2024967,-0.68756 -0.4746093,-0.97266 -0.2721081,-0.28509 -0.6073927,-0.46459 -0.9472657,-0.51953 z"
           style="color:#000000;font-style:normal;font-variant:normal;font-weight:normal;font-stretch:normal;font-size:medium;line-height:normal;font-family:sans-serif;font-variant-ligatures:normal;font-variant-position:normal;font-variant-caps:normal;font-variant-numeric:normal;font-variant-alternates:normal;font-variant-east-asian:normal;font-feature-settings:normal;font-variation-settings:normal;text-indent:0;text-align:start;text-decoration:none;text-decoration-line:none;text-decoration-style:solid;text-decoration-color:#000000;letter-spacing:normal;word-spacing:normal;text-transform:none;writing-mode:lr-tb;direction:ltr;text-orientation:mixed;dominant-baseline:auto;baseline-shift:baseline;text-anchor:start;white-space:normal;shape-padding:0;shape-margin:0;inline-size:0;clip-rule:nonzero;display:inline;overflow:visible;visibility:visible;isolation:auto;mix-blend-mode:normal;color-interpolation:sRGB;color-interpolation-filters:linearRGB;solid-color:#000000;solid-opacity:1;vector-effect:none;fill:#349951;fill-opacity:1;fill-rule:nonzero;stroke:none;stroke-width:0.416205;stroke-linecap:round;stroke-linejoin:round;stroke-miterlimit:4;stroke-dasharray:none;stroke-dashoffset:0;stroke-opacity:1;color-rendering:auto;image-rendering:auto;shape-rendering:auto;text-rendering:auto;enable-background:accumulate;stop-color:#000000" />
        <path
           d="m 5.7944786,261.60319 c -0.2556417,0.01 -0.504104,0.0994 -0.695048,0.28163 -0.1010306,0.0964 -0.1753852,0.21042 -0.2273766,0.33383 0.2021163,-0.0848 0.4291799,-0.10588 0.649573,-0.0703 0.3398729,0.0549 0.6751209,0.23426 0.947229,0.51935 0.2721126,0.2851 0.4353486,0.63048 0.4743897,0.97255 0.023566,0.20649 -9.789e-4,0.41641 -0.079582,0.6041 0.1099453,-0.0457 0.2125388,-0.10967 0.3023071,-0.19534 0.2545938,-0.243 0.3454827,-0.59586 0.3064415,-0.93792 -0.039041,-0.34207 -0.2022771,-0.68745 -0.4743897,-0.97256 -0.2721081,-0.28508 -0.6073561,-0.4644 -0.947229,-0.51934 -0.084968,-0.0137 -0.1711013,-0.0194 -0.256315,-0.016 z"
           style="color:#000000;font-style:normal;font-variant:normal;font-weight:normal;font-stretch:normal;font-size:medium;line-height:normal;font-family:sans-serif;font-variant-ligatures:normal;font-variant-position:normal;font-variant-caps:normal;font-variant-numeric:normal;font-variant-alternates:normal;font-variant-east-asian:normal;font-feature-settings:normal;font-variation-settings:normal;text-indent:0;text-align:start;text-decoration:none;text-decoration-line:none;text-decoration-style:solid;text-decoration-color:#000000;letter-spacing:normal;word-spacing:normal;text-transform:none;writing-mode:lr-tb;direction:ltr;text-orientation:mixed;dominant-baseline:auto;baseline-shift:baseline;text-anchor:start;white-space:normal;shape-padding:0;shape-margin:0;inline-size:0;clip-rule:nonzero;display:inline;overflow:visible;visibility:visible;isolation:auto;mix-blend-mode:normal;color-interpolation:sRGB;color-interpolation-filters:linearRGB;solid-color:#000000;solid-opacity:1;vector-effect:none;fill:#26783f;fill-opacity:1;fill-rule:nonzero;stroke:none;stroke-width:0.416205;stroke-linecap:round;stroke-linejoin:round;stroke-miterlimit:4;stroke-dasharray:none;stroke-dashoffset:0;stroke-opacity:1;color-rendering:auto;image-rendering:auto;shape-rendering:auto;text-rendering:auto;enable-background:accumulate;stop-color:#000000"
           id="path2237" />
      </g>
      <path
         id="path8787"
         style="color:#000000;display:inline;fill:#000000;stroke-width:0.786529;stroke-linecap:round;stroke-linejoin:round;-inkscape-stroke:none"
         d="m 5.0859956,261.89826 c -0.2442774,0.24244 -0.3334086,0.58808 -0.2950724,0.92397 0.039041,0.34206 0.2027939,0.68539 0.4749065,0.97049 0.2721078,0.28509 0.6089066,0.46492 0.9487792,0.51986 0.3351512,0.0541 0.6453397,-0.0435 0.9405112,-0.25373 l 2.7884602,-1.93373 1.2397177,0.3483 c -0.06631,0.14175 -0.111608,0.2778 -0.134359,0.41134 -0.03918,0.22996 -0.0011,0.4615 0.120923,0.64234 0.212686,0.31521 0.594794,0.44295 1.070736,0.47594 0.01729,0.1768 0.08175,0.33674 0.181384,0.46199 0.155377,0.19531 0.379772,0.30758 0.613399,0.33589 0.233629,0.0283 0.482923,-0.0263 0.687297,-0.17983 0.104316,-0.0783 0.193722,-0.18301 0.260966,-0.30851 l 5.29e-4,5.3e-4 c 0.280221,0.17021 0.571024,0.22417 0.83044,0.17518 0.345888,-0.0653 0.614771,-0.29287 0.777214,-0.5643 0.162442,-0.27143 0.23164,-0.60153 0.12299,-0.90847 -0.04448,-0.12567 -0.123206,-0.23988 -0.22996,-0.33383 0.278661,-0.20888 0.474854,-0.50408 0.548286,-0.81442 0.05711,-0.24135 0.0276,-0.51877 -0.150378,-0.72451 -0.09616,-0.11115 -0.224927,-0.19179 -0.379822,-0.24236 0.05754,-0.14515 0.0791,-0.29455 0.06821,-0.43667 0.517899,-0.0357 0.900676,-0.35792 0.991154,-0.76636 0.08997,-0.40616 -0.126025,-0.85268 -0.586011,-1.09192 0.281941,-0.31406 0.376062,-0.69784 0.304891,-1.03921 -0.07426,-0.35621 -0.296146,-0.66469 -0.59893,-0.8537 0.218776,-0.31713 0.246032,-0.6977 0.09509,-1.00149 -0.171158,-0.34446 -0.530494,-0.59165 -0.971,-0.64802 0.02027,-0.26429 -0.04068,-0.49512 -0.179317,-0.66663 -0.07732,-0.0956 -0.171922,-0.16681 -0.275952,-0.21704 -0.05954,-0.51234 -0.333332,-0.95413 -0.722437,-1.19889 -0.217711,-0.13695 -0.478925,-0.19941 -0.74414,-0.17156 l 5.29e-4,-5.3e-4 c -0.124172,0.0131 -0.249167,0.0462 -0.37052,0.10077 -0.01528,-0.18229 -0.05191,-0.34665 -0.110071,-0.493 -0.113375,-0.2853 -0.325051,-0.50537 -0.593762,-0.58808 -0.336732,-0.10362 -0.700281,-0.0113 -1.0573,0.23824 -0.0095,-0.0967 -0.03118,-0.18709 -0.06563,-0.27131 -0.114166,-0.27911 -0.387223,-0.44895 -0.660425,-0.46509 -0.3720457,-0.022 -0.7576053,0.17091 -1.0345624,0.53227 -0.0899,-0.16997 -0.2083009,-0.30712 -0.3482991,-0.40721 -0.2040488,-0.14588 -0.4412843,-0.20708 -0.6208604,-0.20246 -0.8282991,0.0395 -1.51494,0.71384 -1.4074654,1.52279 -0.1178068,-0.0338 -0.2354278,-0.0509 -0.350366,-0.0527 -0.301175,-0.005 -0.5832703,0.0963 -0.803052,0.2775 -0.3988208,0.32888 -0.6045293,0.89437 -0.4728393,1.48157 -0.1544095,0.132 -0.2034307,0.28524 -0.2552816,0.4563 -0.3189465,-0.0691 -0.7002066,-0.0329 -0.9477452,0.21446 -0.3075636,-0.22477 -0.6693244,-0.26991 -0.962732,-0.14056 -0.2806541,0.12372 -0.4890302,0.37667 -0.5870443,0.69039 -0.1107832,-0.0341 -0.2248505,-0.0478 -0.3369303,-0.0439 -0.2475213,0.009 -0.4849881,0.10135 -0.6655925,0.2403 -0.1806044,0.13894 -0.3256328,0.33549 -0.3400309,0.58187 -0.005957,0.10194 0.0163079,0.20507 0.0620117,0.30231 -0.30350183,0.11687 -0.51902628,0.35009 -0.58549398,0.62942 -0.0520864,0.21889 -0.004457,0.46486 0.14831134,0.65422 0.0567703,0.0704 0.1259368,0.13177 0.20618898,0.18397 -0.18743843,0.16708 -0.31269015,0.37395 -0.34468182,0.6072 -0.0288025,0.21 0.0594099,0.45163 0.24597982,0.59376 0.11623218,0.0886 0.25689476,0.14429 0.42374676,0.17415 -0.0790434,0.35756 0.1481667,0.67715 0.4356323,0.75964 -0.029986,0.045 -0.05553,0.0917 -0.075964,0.14005 -0.099008,0.23426 -0.083623,0.488 0.015503,0.69763 0.099126,0.20962 0.2869715,0.38275 0.5312337,0.44493 0.1517274,0.0386 0.3194346,0.0302 0.486792,-0.0263 0.1767789,0.31131 0.5148876,0.4721 0.8294068,0.43098 0.3143747,-0.0411 0.6025774,-0.28802 0.6976317,-0.65009 0.1257853,-0.0129 0.2389367,-0.0451 0.3395144,-0.10025 0.1507288,-0.0827 0.2584315,-0.21809 0.3167763,-0.35709 0.087231,-0.2078 0.097514,-0.42112 0.097152,-0.63097 l 0.1312579,-0.0217 1.1394655,0.95136 c -0.3055187,0.20803 -0.6095678,0.41792 -0.908988,0.63459 z m 3.251997,-10.01179 c 0.157725,0.11276 0.2966516,0.33166 0.3162596,0.76171 0.00669,0.14641 0.1311204,0.25949 0.2775025,0.25218 0.1323258,-0.006 0.2396508,-0.10936 0.3321687,-0.46958 0.1098767,-0.42884 0.7115297,-0.77687 0.9333856,-0.43683 0.04169,0.10193 0.05534,0.31808 -0.05115,0.56638 -0.106497,0.24829 -0.08216,0.3997 0.02376,0.48472 0.114712,0.0917 0.282205,0.0725 0.373104,-0.0429 0.468032,-0.5875 0.903612,-0.732 1.111043,-0.66818 0.103715,0.0319 0.189288,0.10494 0.257865,0.27751 0.06858,0.17257 0.103295,0.44276 0.06098,0.80253 -0.0179,0.14569 0.08622,0.27811 0.232027,0.29507 0.101793,0.0122 0.201461,-0.0355 0.403557,-0.24925 0.154539,-0.16342 0.476112,-0.19568 0.739009,-0.0303 0.200275,0.12597 0.374484,0.36613 0.448551,0.65732 -0.443217,0.0365 -0.913255,0.29851 -1.137915,0.74569 -0.255056,-0.20866 -0.544696,-0.35357 -0.847493,-0.38551 -0.222931,-0.0235 -0.462869,0.0282 -0.650606,0.18191 -0.119042,0.0975 -0.212041,0.22863 -0.27957,0.38809 -0.07751,-0.019 -0.157074,-0.0297 -0.236161,-0.0326 -0.35252,-0.0126 -0.7159779,0.11153 -1.009758,0.34468 -0.107025,-0.19189 -0.2363179,-0.34408 -0.3865396,-0.45217 -0.27731,-0.22551 -0.5347742,-0.22541 -0.870748,-0.0806 -0.3651416,-0.51061 -0.9563118,-0.71397 -1.5606284,-0.45837 -0.1601541,0.0706 -0.3100176,0.18175 -0.4371827,0.33228 -0.063631,-0.0868 -0.1374172,-0.16061 -0.2191081,-0.21911 -0.2043977,-0.14639 -0.4445341,-0.20143 -0.6717935,-0.17828 -0.051449,-0.36602 0.090592,-0.68358 0.3100586,-0.86455 0.2619497,-0.21601 0.6166792,-0.2746 1.0433471,0.076 0.1123445,0.0922 0.2779911,0.0765 0.3710369,-0.0351 0.089142,-0.15224 0.057707,-0.2267 0.00569,-0.3576 -0.2577402,-0.69292 0.124469,-1.13707 0.5451864,-1.27124 0.2100874,-0.076 0.425019,-0.0308 0.5741255,0.0661 z m 5.8766434,2.84375 c 0.06197,0.0767 0.11089,0.21639 0.0217,0.51367 -0.04261,0.13969 0.03603,0.2875 0.1757,0.33021 0.38081,0.0589 0.698649,0.038 0.890902,0.3731 0.0989,0.19904 0.08935,0.41146 -0.234611,0.64285 -0.118481,0.0853 -0.145536,0.25036 -0.06046,0.36897 0.04284,0.0593 0.108313,0.0982 0.28439,0.14314 0.176077,0.0449 0.415583,0.30269 0.471637,0.57155 0.05605,0.26886 -0.01463,0.54995 -0.470773,0.80305 -0.126999,0.0713 -0.1725,0.23182 -0.101802,0.35915 0.04565,0.0821 0.131406,0.13381 0.469261,0.18937 0.337855,0.0556 0.43293,0.33997 0.384433,0.5589 -0.04597,0.20755 -0.245034,0.42151 -0.715202,0.34159 -0.135802,-0.13415 -0.323454,-0.22015 -0.529166,-0.22066 -0.229583,-5.8e-4 -0.466891,0.10567 -0.66766,0.30644 -0.10399,0.10344 -0.10399,0.27173 0,0.37517 0.103381,0.10364 0.271274,0.10364 0.374654,0 0.124586,-0.12459 0.221751,-0.15262 0.290939,-0.15245 0.348511,0.0374 0.244109,0.48628 0.134907,0.60138 -0.109202,0.11511 -0.142802,0.18854 -0.142659,0.26576 2.91e-4,0.14572 0.118344,0.26378 0.264066,0.26406 0.358879,0.005 0.501348,0.12411 0.462504,0.38086 -0.0593,0.25064 -0.358855,0.5919 -0.597231,0.64686 -0.238376,0.055 -0.330586,0.15229 -0.342246,0.27298 -0.01412,0.14504 0.0917,0.27419 0.236679,0.28887 0.281582,0.0282 0.359483,0.12238 0.400492,0.23823 0.04101,0.11585 0.01739,0.29859 -0.07855,0.45889 -0.09593,0.16031 -0.250802,0.28451 -0.42168,0.31677 -0.170879,0.0323 -0.37919,-0.006 -0.542392,-0.1635 -0.163201,-0.15716 -0.226305,-0.19187 -0.295282,-0.19978 -0.145655,-0.0166 -0.277057,0.0884 -0.293005,0.23409 -0.02147,0.19322 -0.09234,0.29345 -0.177767,0.3576 -0.08542,0.0641 -0.198301,0.0912 -0.306958,0.078 -0.108656,-0.0132 -0.204979,-0.0649 -0.26355,-0.13849 -0.05857,-0.0736 -0.09481,-0.16823 -0.06046,-0.3359 0.02958,-0.14296 -0.06223,-0.28287 -0.205155,-0.31264 -0.349438,-0.0381 -0.766665,-0.0831 -0.962732,-0.25786 -0.131812,-0.22602 0.01303,-0.41572 0.09508,-0.61133 l 1.277958,0.35915 c 0.140701,0.0394 0.286681,-0.0428 0.326078,-0.18345 0.03937,-0.1407 -0.04276,-0.28668 -0.183451,-0.32608 -1.065245,-0.30581 -2.093279,-0.58809 -3.1563972,-0.88676 -0.076073,-0.0215 -0.1577682,-0.008 -0.2227255,0.0372 l -2.2649781,1.57045 c -0.098441,-0.70056 -0.5258578,-1.30236 -1.1653036,-1.50275 0.8496427,-0.58405 1.6947989,-1.16792 2.5414471,-1.75132 0.05759,-0.0399 0.09699,-0.10107 0.1095539,-0.17001 0.1291423,-0.66963 0.2448859,-1.31864 0.3689572,-1.988 0.026995,-0.14422 -0.068528,-0.28287 -0.212907,-0.30902 -0.1435381,-0.0267 -0.2816048,0.0679 -0.3085082,0.21135 l -0.1307288,0.70744 c -0.4681159,-0.0582 -0.7230086,-0.15572 -0.7287291,-0.48449 -0.00572,-0.32876 -0.1054521,-0.46343 -0.2500228,-0.48496 -0.2075583,-0.0303 -0.3144023,-0.12027 -0.3886068,-0.24804 -0.074204,-0.12776 -0.1004671,-0.30426 -0.073897,-0.46664 0.078714,-0.34992 0.3264753,-0.48235 0.5168242,-0.41353 0.1353955,0.0564 0.1843685,0.0733 0.2350804,0.0756 0.1463816,0.007 0.2708146,-0.10577 0.2775024,-0.25218 0.011451,-0.23029 0.066566,-0.43982 0.153996,-0.63046 0.08074,-0.14385 0.1781911,-0.21822 0.2557984,-0.23874 0.076413,-0.0202 0.1561661,-0.0122 0.2599322,0.0625 0.1037664,0.0747 0.2223236,0.22352 0.2885583,0.40645 0.066235,0.18293 0.1047007,0.25048 0.1646441,0.2948 0.1175362,0.086 0.2824327,0.0608 0.3689697,-0.0563 0.2056998,-0.27881 0.5811482,-0.44782 0.8635132,-0.4377 0.141183,0.005 0.253139,0.0473 0.333829,0.12299 0.08069,0.0756 0.144177,0.19195 0.157119,0.41568 0.01294,0.22372 0.136718,0.33549 0.282135,0.32846 0.198682,-0.0109 0.304435,0.0418 0.371037,0.10749 0.0666,0.0657 0.101541,0.15854 0.09767,0.262 -0.0078,0.20693 -0.13671,0.43149 -0.527099,0.43149 -0.146934,-5.8e-4 -0.266192,0.11869 -0.265617,0.26562 5.82e-4,0.14613 0.119491,0.26412 0.265617,0.26355 0.630096,0 1.03702,-0.46916 1.054716,-0.94154 0.0088,-0.23619 -0.07133,-0.47939 -0.252181,-0.65784 -0.12934,-0.12762 -0.305981,-0.21477 -0.512114,-0.24753 -0.03966,-0.23808 -0.138364,-0.43976 -0.28267,-0.58705 0.04257,-0.12454 0.09694,-0.19772 0.148312,-0.23978 0.06899,-0.0565 0.144627,-0.0767 0.259932,-0.0646 0.230612,0.0243 0.581213,0.23326 0.834058,0.5333 0.202072,0.20928 0.504816,-0.11386 0.587568,-0.43931 0.116928,-0.33971 0.684614,-0.62518 1.037122,-0.33637 z m -6.2507809,0.48421 c -0.085047,0.15176 -0.1478442,0.333 -0.1855182,0.53743 -0.250885,-0.0362 -0.4898972,0.0262 -0.6650757,0.1602 -0.2259031,0.17285 -0.3518874,0.43361 -0.3963583,0.70538 -0.044471,0.27177 -0.00841,0.5651 0.1384927,0.81804 0.1105832,0.1904 0.2922093,0.35179 0.5255493,0.44184 0.00355,0.17495 0.053145,0.33293 0.1328087,0.46767 -0.263089,0.31861 -0.582117,0.39453 -0.9673829,0.38034 l 0.025839,-0.87385 c 0.00377,-0.14536 -0.110468,-0.26652 -0.2557983,-0.2713 -0.1461561,-0.005 -0.2685958,0.10963 -0.2733683,0.2558 l -0.029456,1.05471 c -0.00309,0.0806 0.030781,0.15826 0.091984,0.21084 l 1.3549562,1.15239 -1.0128581,0.69763 -1.3461712,-1.12345 c -0.059072,-0.0496 -0.1368198,-0.0709 -0.2129071,-0.0584 l -1.5761311,0.25941 c -0.1439344,0.0245 -0.2408338,0.16093 -0.2165242,0.30489 0.023487,0.14454 0.1599073,0.24251 0.3043741,0.2186 l 0.7880657,-0.13023 c -0.00666,0.14953 -0.021079,0.26948 -0.049609,0.33745 -0.094702,0.15261 -0.2559108,0.14388 -0.3742587,0.14241 -0.171554,-0.003 -0.2892182,0.11431 -0.2897846,0.25963 0,0.28736 -0.1329905,0.36711 -0.269751,0.38499 -0.3672247,-0.0517 -0.3041157,-0.28856 -0.3984241,-0.43151 -0.085256,-0.11848 -0.250358,-0.14554 -0.3689698,-0.0605 -0.1624678,0.11605 -0.271997,0.12149 -0.3513997,0.10128 -0.079403,-0.0202 -0.143624,-0.0792 -0.1819011,-0.16019 -0.038277,-0.0809 -0.045196,-0.17703 -0.00775,-0.26562 0.037442,-0.0886 0.117315,-0.18209 0.3105754,-0.25166 0.1375155,-0.0491 0.2092148,-0.20041 0.1601969,-0.33797 -0.066781,-0.15672 -0.1822983,-0.17657 -0.3322795,-0.17776 -0.1824481,-0.008 -0.3116474,-0.0461 -0.3844726,-0.0858 -0.1882051,-0.12726 0.074981,-0.38423 0.2852539,-0.50798 0.1249606,-0.0769 0.1634496,-0.24085 0.085783,-0.36535 -0.077614,-0.12423 -0.2413912,-0.16175 -0.3653524,-0.0837 -0.1042308,0.0648 -0.1958686,0.13217 -0.2754354,0.20308 -0.2535372,0.0412 -0.47485321,-0.0505 -0.47438966,-0.19327 0.0151617,-0.11055 0.21513446,-0.37977 0.55087076,-0.50022 0.137304,-0.0494 0.2087397,-0.20055 0.1596792,-0.33796 -0.055706,-0.13875 -0.1578016,-0.16202 -0.3141927,-0.18551 -0.2114807,-0.0324 -0.32046571,-0.10684 -0.37310385,-0.17209 -0.0526381,-0.0652 -0.0622178,-0.12642 -0.0449585,-0.19895 0.0345186,-0.14507 0.21247845,-0.33817 0.61133225,-0.29869 0.145586,0.0141 0.2749817,-0.0926 0.2888712,-0.23823 0.00282,-0.17047 -0.1050819,-0.23689 -0.2206583,-0.30489 -0.1433424,-0.0912 -0.1451004,-0.13958 -0.142627,-0.1819 0.034645,-0.39516 0.6330103,-0.37717 0.8381917,-0.20103 0.1076886,0.0999 0.2760865,0.0929 0.375171,-0.0155 0.053189,-0.0587 0.077271,-0.13816 0.086203,-0.33567 0.00893,-0.19751 0.1588831,-0.39404 0.31584,-0.46324 0.1303915,-0.0575 0.2759485,-0.0617 0.4526855,0.0879 -0.019704,0.0651 -0.031062,0.13364 -0.032556,0.20515 -0.00555,0.26568 0.1464326,0.5382 0.4216797,0.72864 0.1204727,0.0823 0.2848499,0.0516 0.3674194,-0.0687 0.082388,-0.11984 0.052615,-0.28371 -0.066663,-0.3669 -0.1709317,-0.11826 -0.1948334,-0.20631 -0.1932699,-0.28112 0.00156,-0.0748 0.048492,-0.1693 0.144694,-0.2465 0.096203,-0.0772 0.2322301,-0.12811 0.3632853,-0.12299 0.1310553,0.005 0.2593801,0.0551 0.3673459,0.19481 0.1079662,0.13974 0.2610176,0.17767 0.3824796,0.11008 0.1282309,-0.0713 0.1739077,-0.23341 0.1018027,-0.36122 -0.1206214,-0.21712 -0.1055661,-0.33856 -0.07028,-0.41444 0.035286,-0.0759 0.1137815,-0.13469 0.2263429,-0.15606 0.1125614,-0.0214 0.2461059,0.003 0.3513997,0.078 0.1052936,0.0754 0.1962552,0.20039 0.2227255,0.4377 0.016759,0.1442 0.1465842,0.24797 0.2909382,0.23254 0.1435214,-0.0156 0.2059273,-0.0958 0.2780782,-0.30897 0.072151,-0.21313 0.2226712,-0.35042 0.3844123,-0.42173 0.4997752,-0.1768 0.7347366,0.0532 0.9343093,0.39222 z m -2.7724405,1.55494 c -0.1455201,5.6e-4 -0.2632665,0.11855 -0.2635499,0.26407 v 0.41961 l -0.4299479,-0.33796 c -0.1149223,-0.0899 -0.2809044,-0.0698 -0.3710369,0.045 -0.08987,0.11492 -0.069758,0.2809 0.044959,0.37103 l 0.8557617,0.67386 c 0.1738053,0.13559 0.4274775,0.0117 0.4273643,-0.20877 v -0.96325 c -5.557e-4,-0.14532 -0.1182307,-0.26298 -0.2635499,-0.26355 z m 4.8513834,0.96687 -0.2811198,2.11925 c -0.030962,0.22049 0.2076289,0.37831 0.3984258,0.26355 l 2.226737,-1.32033 c 0.125225,-0.0742 0.167018,-0.23558 0.09353,-0.36122 -0.07425,-0.12647 -0.237196,-0.16843 -0.363286,-0.0935 l -1.757515,1.04283 0.208772,-1.58026 c 0.01892,-0.14501 -0.08338,-0.27786 -0.242875,-0.28562 -0.15949,-0.008 -0.265274,0.0885 -0.282674,0.21534 z m -6.7262046,0.28112 c -0.090222,0.115 -0.07009,0.28138 0.044959,0.37155 l 0.5777426,0.45475 -0.9704835,0.12919 c -0.1453182,0.0195 -0.2470632,0.15347 -0.2268596,0.29869 0.019786,0.14442 0.152654,0.24563 0.2971395,0.22635 l 1.5916342,-0.21446 c 0.2319782,-0.0316 0.311671,-0.32671 0.1271241,-0.47077 l -1.070219,-0.83974 c -0.1272008,-0.0959 -0.278778,-0.0598 -0.3710369,0.0444 z m 5.2684126,0.89297 -0.120406,0.65216 -0.5524212,0.38085 -0.8495607,-0.72347 c 0.3230631,-0.0642 0.6513653,-0.27721 0.8371583,-0.50384 0.2126851,0.11165 0.4738288,0.16246 0.6852296,0.1943 z m 4.612122,0.32194 -2.054655,1.23249 c -0.194317,0.11847 -0.158338,0.41072 0.05891,0.47852 l 2.118734,0.65061 c 0.139698,0.0426 0.287502,-0.036 0.330212,-0.1757 0.04278,-0.1391 -0.0348,-0.28662 -0.173633,-0.33022 l -1.552877,-0.47645 1.545126,-0.92605 c 0.125728,-0.0749 0.166714,-0.23773 0.09147,-0.36328 -0.120421,-0.16149 -0.254592,-0.14627 -0.363285,-0.0899 z m -7.230567,2.91042 c 0.2119698,0.0343 0.4512421,0.1545 0.6485392,0.36122 0.197299,0.20671 0.3079306,0.45278 0.3322794,0.66611 0.024241,0.21239 -0.028232,0.38182 -0.1534747,0.49691 -0.1252424,0.11508 -0.291564,0.15509 -0.495076,0.12218 -0.2119698,-0.0343 -0.4533093,-0.1545 -0.6506064,-0.36122 -0.197299,-0.20671 -0.3074138,-0.45276 -0.3317627,-0.6661 -0.014277,-0.47216 0.3013232,-0.66152 0.6501012,-0.6191 z"
         sodipodi:nodetypes="cscccccsccccccccsscssccscscscscscccsccsccccccscccscccscsscssccsccccccccccccccccccccscccscccccccccccscsccccccccccccscccscccccccccccccsccccccsccccccccccccccccccccsscccccsccccccccccsccsccccccccccssccccccccccccccccccccccccccccccccccccccscccccccscscccsscccccccccccccsccccccccscccccccccccccccccccccccccccccccccccccscccscc" />
    </g>
  </g>
</svg>
